STARTFONT 2.1
COMMENT
COMMENT Converted from OpenType font "Patriot-Bold.otf" by "otf2bdf 3.0".
COMMENT
FONT -FreeType-Patriot Bold-Medium-R-Normal--19-140-100-100-P-98-ISO10646-1
SIZE 14 100 100
FONTBOUNDINGBOX 34 25 -8 -5
STARTPROPERTIES 19
FOUNDRY "FreeType"
FAMILY_NAME "Patriot Bold"
WEIGHT_NAME "Medium"
SLANT "R"
SETWIDTH_NAME "Normal"
ADD_STYLE_NAME ""
PIXEL_SIZE 19
POINT_SIZE 140
RESOLUTION_X 100
RESOLUTION_Y 100
SPACING "P"
AVERAGE_WIDTH 98
CHARSET_REGISTRY "ISO10646"
CHARSET_ENCODING "1"
FONT_ASCENT 19
FONT_DESCENT 3
COPYRIGHT "Copyright © 2020 by Behalf Studio. All rights reserved."
_OTF_FONTFILE "Patriot-Bold.otf"
_OTF_PSNAME "Patriot-Bold"
ENDPROPERTIES
CHARS 426
STARTCHAR 0020
ENCODING 32
SWIDTH 360 0
DWIDTH 7 0
BBX 0 0 0 0
BITMAP
ENDCHAR
STARTCHAR 0021
ENCODING 33
SWIDTH 257 0
DWIDTH 5 0
BBX 3 14 1 0
BITMAP
E0
E0
E0
E0
E0
E0
E0
E0
E0
00
00
60
E0
E0
ENDCHAR
STARTCHAR 0022
ENCODING 34
SWIDTH 308 0
DWIDTH 6 0
BBX 5 5 1 9
BITMAP
D8
D8
D8
D8
D8
ENDCHAR
STARTCHAR 0023
ENCODING 35
SWIDTH 617 0
DWIDTH 12 0
BBX 11 14 1 0
BITMAP
19C0
19C0
1980
1980
7FE0
7FE0
3180
3380
FFC0
FFC0
3300
7300
7300
7300
ENDCHAR
STARTCHAR 0024
ENCODING 36
SWIDTH 565 0
DWIDTH 11 0
BBX 9 18 1 -2
BITMAP
0C00
0C00
3E00
7F00
7F00
7380
7000
7800
3E00
1F00
0780
0380
6380
F780
7F00
3E00
0C00
0C00
ENDCHAR
STARTCHAR 0025
ENCODING 37
SWIDTH 925 0
DWIDTH 18 0
BBX 17 14 1 0
BITMAP
3C0C00
7E1800
E63800
C63000
EE6000
7EE000
38C000
018800
033F00
033F00
067380
0C7300
1C3F00
181E00
ENDCHAR
STARTCHAR 0026
ENCODING 38
SWIDTH 668 0
DWIDTH 13 0
BBX 11 14 1 0
BITMAP
1E00
3F80
7F80
7100
6000
7000
7FE0
7FE0
F1C0
E1C0
E1C0
F3C0
7F80
3F00
ENDCHAR
STARTCHAR 0027
ENCODING 39
SWIDTH 154 0
DWIDTH 3 0
BBX 2 5 1 9
BITMAP
C0
C0
C0
C0
C0
ENDCHAR
STARTCHAR 0028
ENCODING 40
SWIDTH 360 0
DWIDTH 7 0
BBX 5 19 1 -3
BITMAP
10
18
30
70
60
60
C0
C0
C0
C0
C0
C0
C0
60
60
70
30
38
10
ENDCHAR
STARTCHAR 0029
ENCODING 41
SWIDTH 360 0
DWIDTH 7 0
BBX 5 19 1 -3
BITMAP
40
E0
60
70
30
30
18
18
18
18
18
18
18
30
30
30
60
E0
40
ENDCHAR
STARTCHAR 002A
ENCODING 42
SWIDTH 411 0
DWIDTH 8 0
BBX 7 7 1 7
BITMAP
10
30
DE
FE
38
6C
08
ENDCHAR
STARTCHAR 002B
ENCODING 43
SWIDTH 565 0
DWIDTH 11 0
BBX 9 9 1 2
BITMAP
0C00
0C00
0C00
0C00
FF80
FF80
0C00
0C00
0C00
ENDCHAR
STARTCHAR 002C
ENCODING 44
SWIDTH 257 0
DWIDTH 5 0
BBX 3 3 1 -2
BITMAP
60
60
C0
ENDCHAR
STARTCHAR 002D
ENCODING 45
SWIDTH 411 0
DWIDTH 8 0
BBX 7 1 1 4
BITMAP
FE
ENDCHAR
STARTCHAR 002E
ENCODING 46
SWIDTH 257 0
DWIDTH 5 0
BBX 3 3 1 0
BITMAP
60
E0
E0
ENDCHAR
STARTCHAR 002F
ENCODING 47
SWIDTH 411 0
DWIDTH 8 0
BBX 6 14 1 0
BITMAP
0C
0C
1C
18
18
18
38
30
30
70
60
60
60
E0
ENDCHAR
STARTCHAR 0030
ENCODING 48
SWIDTH 720 0
DWIDTH 14 0
BBX 13 14 1 0
BITMAP
0F00
3FC0
7FE0
70F0
E070
E038
C038
C038
E038
E030
F070
79F0
3FE0
1F80
ENDCHAR
STARTCHAR 0031
ENCODING 49
SWIDTH 308 0
DWIDTH 6 0
BBX 5 14 1 0
BITMAP
38
38
F8
F8
38
38
38
38
38
38
38
38
38
38
ENDCHAR
STARTCHAR 0032
ENCODING 50
SWIDTH 565 0
DWIDTH 11 0
BBX 9 14 1 0
BITMAP
1E00
7F00
FF80
E380
E380
0380
0380
0700
0E00
1E00
3C00
7800
FF80
FF80
ENDCHAR
STARTCHAR 0033
ENCODING 51
SWIDTH 514 0
DWIDTH 10 0
BBX 9 14 1 0
BITMAP
FF00
FF00
FE00
0C00
1C00
3E00
7F00
2700
0380
0380
0380
E700
FF00
7E00
ENDCHAR
STARTCHAR 0034
ENCODING 52
SWIDTH 565 0
DWIDTH 11 0
BBX 11 14 0 0
BITMAP
0180
0F80
1F80
3D80
7180
7180
6180
E180
FFE0
FFE0
0180
0180
0180
0180
ENDCHAR
STARTCHAR 0035
ENCODING 53
SWIDTH 514 0
DWIDTH 10 0
BBX 9 14 1 0
BITMAP
7F80
7F80
7F80
6000
E000
FE00
FF00
6780
0380
0380
0380
6780
FF00
7E00
ENDCHAR
STARTCHAR 0036
ENCODING 54
SWIDTH 617 0
DWIDTH 12 0
BBX 11 14 1 0
BITMAP
0700
0E00
1E00
1C00
3F00
7F80
7FC0
E1C0
E0E0
E0E0
E1C0
F3C0
7F80
3F00
ENDCHAR
STARTCHAR 0037
ENCODING 55
SWIDTH 462 0
DWIDTH 9 0
BBX 9 14 1 0
BITMAP
FF80
FF80
FF00
0700
0700
0E00
7F00
7F00
1C00
1C00
3800
3800
3800
7000
ENDCHAR
STARTCHAR 0038
ENCODING 56
SWIDTH 565 0
DWIDTH 11 0
BBX 10 14 1 0
BITMAP
1C00
7F00
7F00
6380
7300
7F00
7F00
F780
E180
C1C0
E180
F780
7F00
3E00
ENDCHAR
STARTCHAR 0039
ENCODING 57
SWIDTH 565 0
DWIDTH 11 0
BBX 10 14 1 0
BITMAP
1E00
7F80
7FC0
E1C0
E0C0
E0C0
E1C0
F1C0
7F80
3F80
0700
0E00
1E00
1C00
ENDCHAR
STARTCHAR 003A
ENCODING 58
SWIDTH 257 0
DWIDTH 5 0
BBX 3 10 1 0
BITMAP
60
E0
E0
00
00
00
00
60
E0
E0
ENDCHAR
STARTCHAR 003B
ENCODING 59
SWIDTH 257 0
DWIDTH 5 0
BBX 4 12 1 -2
BITMAP
60
70
70
00
00
00
00
00
00
60
60
C0
ENDCHAR
STARTCHAR 003C
ENCODING 60
SWIDTH 565 0
DWIDTH 11 0
BBX 9 8 1 3
BITMAP
0380
0F80
7E00
F000
F000
3E00
0F80
0180
ENDCHAR
STARTCHAR 003D
ENCODING 61
SWIDTH 565 0
DWIDTH 11 0
BBX 9 7 1 3
BITMAP
FF80
FF80
FF80
0000
0000
FF80
FF80
ENDCHAR
STARTCHAR 003E
ENCODING 62
SWIDTH 565 0
DWIDTH 11 0
BBX 9 8 1 3
BITMAP
E000
FC00
1F00
0380
0780
3F00
F800
C000
ENDCHAR
STARTCHAR 003F
ENCODING 63
SWIDTH 411 0
DWIDTH 8 0
BBX 7 14 1 0
BITMAP
38
7C
FE
0E
0E
1C
38
38
30
00
00
38
38
38
ENDCHAR
STARTCHAR 0040
ENCODING 64
SWIDTH 822 0
DWIDTH 16 0
BBX 14 14 1 0
BITMAP
07C0
1FF0
3018
600C
47CC
CFCC
CCCC
CCCC
CFD8
C770
6000
3010
3C70
0FE0
ENDCHAR
STARTCHAR 0041
ENCODING 65
SWIDTH 565 0
DWIDTH 11 0
BBX 10 14 1 0
BITMAP
3C00
7F00
FF00
E380
E380
E380
E380
E380
E380
E380
E380
FFC0
FFC0
FFC0
ENDCHAR
STARTCHAR 0042
ENCODING 66
SWIDTH 617 0
DWIDTH 12 0
BBX 11 14 1 0
BITMAP
7E00
7F80
7FC0
71E0
70E0
71C0
FFC0
FFC0
71E0
70E0
70E0
7FE0
7FC0
7F80
ENDCHAR
STARTCHAR 0043
ENCODING 67
SWIDTH 668 0
DWIDTH 13 0
BBX 12 14 1 0
BITMAP
0780
1FE0
7FF0
7860
F000
E000
E000
E000
E000
E000
7000
7CE0
3FF0
0FC0
ENDCHAR
STARTCHAR 0044
ENCODING 68
SWIDTH 668 0
DWIDTH 13 0
BBX 12 14 1 0
BITMAP
FC00
FF80
FFC0
E1E0
E0E0
E070
E070
E070
E070
E0E0
E1E0
FFC0
FF80
FF00
ENDCHAR
STARTCHAR 0045
ENCODING 69
SWIDTH 514 0
DWIDTH 10 0
BBX 9 14 1 0
BITMAP
7E00
7E00
7E00
7000
7000
7000
FE00
FE00
7000
7000
7000
7F80
7F80
7F80
ENDCHAR
STARTCHAR 0046
ENCODING 70
SWIDTH 462 0
DWIDTH 9 0
BBX 8 14 1 0
BITMAP
7F
7F
7F
70
70
70
FF
FF
FF
70
70
70
70
70
ENDCHAR
STARTCHAR 0047
ENCODING 71
SWIDTH 822 0
DWIDTH 16 0
BBX 15 14 1 0
BITMAP
0780
1FE0
7FF0
7860
F000
E000
E1FE
E1FE
E1FE
E03C
7038
7CF8
3FF0
0FC0
ENDCHAR
STARTCHAR 0048
ENCODING 72
SWIDTH 565 0
DWIDTH 11 0
BBX 9 14 1 0
BITMAP
7380
7380
7380
7380
7380
7380
FF80
FF80
FF80
7380
7380
7380
7380
7380
ENDCHAR
STARTCHAR 0049
ENCODING 73
SWIDTH 205 0
DWIDTH 4 0
BBX 6 16 -1 0
BITMAP
10
10
FC
38
38
48
00
00
38
38
38
38
38
38
38
38
ENDCHAR
STARTCHAR 004A
ENCODING 74
SWIDTH 462 0
DWIDTH 9 0
BBX 7 14 1 0
BITMAP
1E
1E
1E
06
06
06
06
06
06
06
0E
EE
FE
7C
ENDCHAR
STARTCHAR 004B
ENCODING 75
SWIDTH 565 0
DWIDTH 11 0
BBX 9 14 1 0
BITMAP
7380
7380
7380
7380
7380
7700
FF00
FF80
7380
7380
7180
7180
7180
7180
ENDCHAR
STARTCHAR 004C
ENCODING 76
SWIDTH 462 0
DWIDTH 9 0
BBX 8 14 1 0
BITMAP
E0
E0
E0
E0
E0
E0
E0
E0
E0
E0
E0
FF
FF
FF
ENDCHAR
STARTCHAR 004D
ENCODING 77
SWIDTH 874 0
DWIDTH 17 0
BBX 15 14 1 0
BITMAP
410E
E18E
F1CE
7DFE
7FFE
7FBE
779E
738E
718E
718E
718E
718E
718E
718E
ENDCHAR
STARTCHAR 004E
ENCODING 78
SWIDTH 565 0
DWIDTH 11 0
BBX 9 14 1 0
BITMAP
4380
E380
F380
7F80
7F80
6F80
6780
6380
6380
6380
6380
6380
6380
6380
ENDCHAR
STARTCHAR 004F
ENCODING 79
SWIDTH 822 0
DWIDTH 16 0
BBX 14 14 1 0
BITMAP
07C0
1FF0
7FF8
7878
F01C
E01C
E01C
E01C
E01C
E01C
703C
7CF8
3FF0
0FE0
ENDCHAR
STARTCHAR 0050
ENCODING 80
SWIDTH 565 0
DWIDTH 11 0
BBX 10 14 1 0
BITMAP
7C00
7F80
7FC0
61C0
61C0
61C0
FFC0
FF80
FF00
6000
6000
6000
6000
6000
ENDCHAR
STARTCHAR 0051
ENCODING 81
SWIDTH 822 0
DWIDTH 16 0
BBX 14 14 1 -1
BITMAP
07C0
1FF0
7FF8
7878
F01C
E01C
E01C
E01C
E01C
E01C
703C
7CF8
3FFC
0FF8
ENDCHAR
STARTCHAR 0052
ENCODING 82
SWIDTH 617 0
DWIDTH 12 0
BBX 10 14 1 0
BITMAP
7E00
7F80
7FC0
71C0
70C0
71C0
FFC0
FF80
FF80
71C0
71C0
71C0
71C0
71C0
ENDCHAR
STARTCHAR 0053
ENCODING 83
SWIDTH 514 0
DWIDTH 10 0
BBX 9 14 1 0
BITMAP
3C00
7E00
FF00
E700
E000
7800
7C00
3E00
0F00
0700
E380
F700
FF00
7E00
ENDCHAR
STARTCHAR 0054
ENCODING 84
SWIDTH 514 0
DWIDTH 10 0
BBX 9 14 1 0
BITMAP
FF80
FF80
FF80
1C00
1C00
1C00
1C00
1C00
1C00
1C00
1C00
1C00
1C00
1C00
ENDCHAR
STARTCHAR 0055
ENCODING 85
SWIDTH 514 0
DWIDTH 10 0
BBX 9 14 1 0
BITMAP
E380
E380
E380
E380
E380
E380
E380
E380
E380
E380
E380
F700
7F00
3E00
ENDCHAR
STARTCHAR 0056
ENCODING 86
SWIDTH 462 0
DWIDTH 9 0
BBX 9 14 0 0
BITMAP
E380
E380
E380
E380
E380
E380
E380
E380
E380
7700
7700
7700
3E00
1C00
ENDCHAR
STARTCHAR 0057
ENCODING 87
SWIDTH 771 0
DWIDTH 15 0
BBX 14 14 0 0
BITMAP
E38C
E38C
E38C
E38C
E38C
E38C
E38C
E39C
E39C
779C
77DC
77F8
3EF8
1EF0
ENDCHAR
STARTCHAR 0058
ENCODING 88
SWIDTH 514 0
DWIDTH 10 0
BBX 9 14 1 0
BITMAP
E380
E380
E380
E380
E780
7F00
7F00
FF00
E380
E380
E380
E380
E380
E380
ENDCHAR
STARTCHAR 0059
ENCODING 89
SWIDTH 514 0
DWIDTH 10 0
BBX 9 14 1 0
BITMAP
E380
E380
E380
E380
E380
E380
E380
E700
FF00
7F00
3C00
1C00
1C00
1C00
ENDCHAR
STARTCHAR 005A
ENCODING 90
SWIDTH 514 0
DWIDTH 10 0
BBX 9 14 1 0
BITMAP
FF80
FF80
FF80
0700
0E00
0E00
1C00
3C00
3800
7000
7000
FF80
FF80
FF80
ENDCHAR
STARTCHAR 005B
ENCODING 91
SWIDTH 257 0
DWIDTH 5 0
BBX 3 19 1 -3
BITMAP
E0
E0
C0
C0
C0
C0
C0
C0
C0
C0
C0
C0
C0
C0
C0
C0
C0
E0
E0
ENDCHAR
STARTCHAR 005C
ENCODING 92
SWIDTH 411 0
DWIDTH 8 0
BBX 6 14 1 0
BITMAP
E0
60
60
60
70
30
30
38
18
18
18
1C
0C
0C
ENDCHAR
STARTCHAR 005D
ENCODING 93
SWIDTH 257 0
DWIDTH 5 0
BBX 3 19 1 -3
BITMAP
E0
E0
20
20
20
20
20
20
20
20
20
20
20
20
20
20
20
E0
E0
ENDCHAR
STARTCHAR 005E
ENCODING 94
SWIDTH 514 0
DWIDTH 10 0
BBX 7 5 2 7
BITMAP
38
78
6C
CC
C6
ENDCHAR
STARTCHAR 005F
ENCODING 95
SWIDTH 514 0
DWIDTH 10 0
BBX 9 1 1 -2
BITMAP
FF80
ENDCHAR
STARTCHAR 0060
ENCODING 96
SWIDTH 154 0
DWIDTH 3 0
BBX 3 2 0 15
BITMAP
E0
60
ENDCHAR
STARTCHAR 0061
ENCODING 97
SWIDTH 565 0
DWIDTH 11 0
BBX 10 14 1 0
BITMAP
3C00
7F00
FF00
E380
E380
E380
E380
E380
E380
E380
E380
FFC0
FFC0
FFC0
ENDCHAR
STARTCHAR 0062
ENCODING 98
SWIDTH 617 0
DWIDTH 12 0
BBX 11 14 1 0
BITMAP
7E00
7F80
7FC0
71E0
70E0
71C0
FFC0
FFC0
71E0
70E0
70E0
7FE0
7FC0
7F80
ENDCHAR
STARTCHAR 0063
ENCODING 99
SWIDTH 668 0
DWIDTH 13 0
BBX 12 14 1 0
BITMAP
0780
1FE0
7FF0
7860
F000
E000
E000
E000
E000
E000
7000
7CE0
3FF0
0FC0
ENDCHAR
STARTCHAR 0064
ENCODING 100
SWIDTH 668 0
DWIDTH 13 0
BBX 12 14 1 0
BITMAP
FC00
FF80
FFC0
E1E0
E0E0
E070
E070
E070
E070
E0E0
E1E0
FFC0
FF80
FF00
ENDCHAR
STARTCHAR 0065
ENCODING 101
SWIDTH 514 0
DWIDTH 10 0
BBX 9 14 1 0
BITMAP
7E00
7E00
7E00
7000
7000
7000
FE00
FE00
7000
7000
7000
7F80
7F80
7F80
ENDCHAR
STARTCHAR 0066
ENCODING 102
SWIDTH 462 0
DWIDTH 9 0
BBX 8 14 1 0
BITMAP
7F
7F
7F
70
70
70
FF
FF
FF
70
70
70
70
70
ENDCHAR
STARTCHAR 0067
ENCODING 103
SWIDTH 822 0
DWIDTH 16 0
BBX 15 14 1 0
BITMAP
0780
1FE0
7FF0
7860
F000
E000
E1FE
E1FE
E1FE
E03C
7038
7CF8
3FF0
0FC0
ENDCHAR
STARTCHAR 0068
ENCODING 104
SWIDTH 565 0
DWIDTH 11 0
BBX 9 14 1 0
BITMAP
7380
7380
7380
7380
7380
7380
FF80
FF80
FF80
7380
7380
7380
7380
7380
ENDCHAR
STARTCHAR 0069
ENCODING 105
SWIDTH 205 0
DWIDTH 4 0
BBX 6 16 -1 0
BITMAP
10
10
FC
38
38
48
00
00
38
38
38
38
38
38
38
38
ENDCHAR
STARTCHAR 006A
ENCODING 106
SWIDTH 462 0
DWIDTH 9 0
BBX 7 14 1 0
BITMAP
1E
1E
1E
06
06
06
06
06
06
06
0E
EE
FE
7C
ENDCHAR
STARTCHAR 006B
ENCODING 107
SWIDTH 565 0
DWIDTH 11 0
BBX 9 14 1 0
BITMAP
7380
7380
7380
7380
7380
7700
FF00
FF80
7380
7380
7180
7180
7180
7180
ENDCHAR
STARTCHAR 006C
ENCODING 108
SWIDTH 462 0
DWIDTH 9 0
BBX 8 14 1 0
BITMAP
E0
E0
E0
E0
E0
E0
E0
E0
E0
E0
E0
FF
FF
FF
ENDCHAR
STARTCHAR 006D
ENCODING 109
SWIDTH 874 0
DWIDTH 17 0
BBX 15 14 1 0
BITMAP
410E
E18E
F1CE
7DFE
7FFE
7FBE
779E
738E
718E
718E
718E
718E
718E
718E
ENDCHAR
STARTCHAR 006E
ENCODING 110
SWIDTH 565 0
DWIDTH 11 0
BBX 9 14 1 0
BITMAP
4380
E380
F380
7F80
7F80
6F80
6780
6380
6380
6380
6380
6380
6380
6380
ENDCHAR
STARTCHAR 006F
ENCODING 111
SWIDTH 822 0
DWIDTH 16 0
BBX 14 14 1 0
BITMAP
07C0
1FF0
7FF8
7878
F01C
E01C
E01C
E01C
E01C
E01C
703C
7CF8
3FF0
0FE0
ENDCHAR
STARTCHAR 0070
ENCODING 112
SWIDTH 565 0
DWIDTH 11 0
BBX 10 14 1 0
BITMAP
7C00
7F80
7FC0
61C0
61C0
61C0
FFC0
FF80
FF00
6000
6000
6000
6000
6000
ENDCHAR
STARTCHAR 0071
ENCODING 113
SWIDTH 822 0
DWIDTH 16 0
BBX 14 14 1 -1
BITMAP
07C0
1FF0
7FF8
7878
F01C
E01C
E01C
E01C
E01C
E01C
703C
7CF8
3FFC
0FF8
ENDCHAR
STARTCHAR 0072
ENCODING 114
SWIDTH 617 0
DWIDTH 12 0
BBX 10 14 1 0
BITMAP
7E00
7F80
7FC0
71C0
70C0
71C0
FFC0
FF80
FF80
71C0
71C0
71C0
71C0
71C0
ENDCHAR
STARTCHAR 0073
ENCODING 115
SWIDTH 514 0
DWIDTH 10 0
BBX 9 14 1 0
BITMAP
3C00
7E00
FF00
E700
E000
7800
7C00
3E00
0F00
0700
E380
F700
FF00
7E00
ENDCHAR
STARTCHAR 0074
ENCODING 116
SWIDTH 514 0
DWIDTH 10 0
BBX 9 14 1 0
BITMAP
FF80
FF80
FF80
1C00
1C00
1C00
1C00
1C00
1C00
1C00
1C00
1C00
1C00
1C00
ENDCHAR
STARTCHAR 0075
ENCODING 117
SWIDTH 514 0
DWIDTH 10 0
BBX 9 14 1 0
BITMAP
E380
E380
E380
E380
E380
E380
E380
E380
E380
E380
E380
F700
7F00
3E00
ENDCHAR
STARTCHAR 0076
ENCODING 118
SWIDTH 462 0
DWIDTH 9 0
BBX 9 14 0 0
BITMAP
E380
E380
E380
E380
E380
E380
E380
E380
E380
7700
7700
7700
3E00
1C00
ENDCHAR
STARTCHAR 0077
ENCODING 119
SWIDTH 771 0
DWIDTH 15 0
BBX 14 14 0 0
BITMAP
E38C
E38C
E38C
E38C
E38C
E38C
E38C
E39C
E39C
779C
77DC
77F8
3EF8
1EF0
ENDCHAR
STARTCHAR 0078
ENCODING 120
SWIDTH 514 0
DWIDTH 10 0
BBX 9 14 1 0
BITMAP
E380
E380
E380
E380
E780
7F00
7F00
FF00
E380
E380
E380
E380
E380
E380
ENDCHAR
STARTCHAR 0079
ENCODING 121
SWIDTH 514 0
DWIDTH 10 0
BBX 9 14 1 0
BITMAP
E380
E380
E380
E380
E380
E380
E380
E700
FF00
7F00
3C00
1C00
1C00
1C00
ENDCHAR
STARTCHAR 007A
ENCODING 122
SWIDTH 514 0
DWIDTH 10 0
BBX 9 14 1 0
BITMAP
FF80
FF80
FF80
0700
0E00
0E00
1C00
3C00
3800
7000
7000
FF80
FF80
FF80
ENDCHAR
STARTCHAR 007B
ENCODING 123
SWIDTH 308 0
DWIDTH 6 0
BBX 5 19 1 -3
BITMAP
38
78
60
60
60
60
60
60
E0
C0
60
60
60
60
60
60
60
38
38
ENDCHAR
STARTCHAR 007C
ENCODING 124
SWIDTH 154 0
DWIDTH 3 0
BBX 2 16 1 -2
BITMAP
C0
C0
C0
C0
C0
C0
C0
C0
C0
C0
C0
C0
C0
C0
C0
C0
ENDCHAR
STARTCHAR 007D
ENCODING 125
SWIDTH 308 0
DWIDTH 6 0
BBX 5 19 1 -3
BITMAP
E0
E0
60
60
60
60
60
30
38
38
30
30
60
60
60
60
60
E0
E0
ENDCHAR
STARTCHAR 007E
ENCODING 126
SWIDTH 514 0
DWIDTH 10 0
BBX 9 3 1 5
BITMAP
7000
FF80
9F80
ENDCHAR
STARTCHAR 00A1
ENCODING 161
SWIDTH 257 0
DWIDTH 5 0
BBX 3 14 1 -2
BITMAP
60
E0
E0
40
00
E0
E0
E0
E0
E0
E0
E0
E0
E0
ENDCHAR
STARTCHAR 00A2
ENCODING 162
SWIDTH 514 0
DWIDTH 10 0
BBX 8 12 1 1
BITMAP
1C
1C
3F
7F
E0
C0
C0
E0
72
7F
1E
1C
ENDCHAR
STARTCHAR 00A3
ENCODING 163
SWIDTH 565 0
DWIDTH 11 0
BBX 9 14 1 0
BITMAP
0F80
1F80
3F80
7800
7000
7000
FF00
FF00
3800
3800
3800
F800
FF80
FF80
ENDCHAR
STARTCHAR 00A4
ENCODING 164
SWIDTH 617 0
DWIDTH 12 0
BBX 10 10 1 1
BITMAP
4080
FFC0
7380
6180
6080
6180
6180
7F80
FFC0
4080
ENDCHAR
STARTCHAR 00A5
ENCODING 165
SWIDTH 668 0
DWIDTH 13 0
BBX 11 14 1 0
BITMAP
E0E0
71E0
71C0
39C0
3B80
1F80
1F00
7FC0
7FC0
0E00
7FC0
7FC0
0E00
0E00
ENDCHAR
STARTCHAR 00A6
ENCODING 166
SWIDTH 154 0
DWIDTH 3 0
BBX 2 16 1 -2
BITMAP
C0
C0
C0
C0
C0
C0
00
00
00
00
C0
C0
C0
C0
C0
C0
ENDCHAR
STARTCHAR 00A7
ENCODING 167
SWIDTH 462 0
DWIDTH 9 0
BBX 8 16 1 -2
BITMAP
3C
7E
7E
64
70
3C
7E
E7
E7
7E
3C
1E
0E
E6
7E
3C
ENDCHAR
STARTCHAR 00A8
ENCODING 168
SWIDTH 411 0
DWIDTH 8 0
BBX 8 4 0 14
BITMAP
63
E7
E7
02
ENDCHAR
STARTCHAR 00A9
ENCODING 169
SWIDTH 822 0
DWIDTH 16 0
BBX 15 14 1 0
BITMAP
07C0
1C70
3018
610C
47C4
CC84
CC06
8806
CC04
CFC4
438C
2018
3830
0FE0
ENDCHAR
STARTCHAR 00AB
ENCODING 171
SWIDTH 617 0
DWIDTH 12 0
BBX 10 8 1 2
BITMAP
19C0
3980
7300
6700
E700
7300
3B80
19C0
ENDCHAR
STARTCHAR 00AC
ENCODING 172
SWIDTH 565 0
DWIDTH 11 0
BBX 9 5 1 2
BITMAP
FF80
FF80
0180
0180
0180
ENDCHAR
STARTCHAR 00AE
ENCODING 174
SWIDTH 514 0
DWIDTH 10 0
BBX 8 8 1 6
BITMAP
3C
42
9D
BD
95
95
62
1C
ENDCHAR
STARTCHAR 00AF
ENCODING 175
SWIDTH 257 0
DWIDTH 5 0
BBX 6 2 0 15
BITMAP
FC
FC
ENDCHAR
STARTCHAR 00B0
ENCODING 176
SWIDTH 360 0
DWIDTH 7 0
BBX 5 5 1 9
BITMAP
70
D8
88
D8
70
ENDCHAR
STARTCHAR 00B1
ENCODING 177
SWIDTH 565 0
DWIDTH 11 0
BBX 9 8 1 2
BITMAP
0C00
FF80
FF80
FF80
0C00
0C00
FF80
FF80
ENDCHAR
STARTCHAR 00B4
ENCODING 180
SWIDTH 154 0
DWIDTH 3 0
BBX 3 2 0 15
BITMAP
60
C0
ENDCHAR
STARTCHAR 00B6
ENCODING 182
SWIDTH 514 0
DWIDTH 10 0
BBX 8 16 1 -2
BITMAP
1D
7D
FD
FD
FD
FD
7D
3D
0D
0D
0D
0D
0D
0D
0D
0D
ENDCHAR
STARTCHAR 00B7
ENCODING 183
SWIDTH 257 0
DWIDTH 5 0
BBX 3 3 1 4
BITMAP
60
E0
E0
ENDCHAR
STARTCHAR 00B8
ENCODING 184
SWIDTH 205 0
DWIDTH 4 0
BBX 5 4 0 -4
BITMAP
20
30
18
F0
ENDCHAR
STARTCHAR 00BB
ENCODING 187
SWIDTH 617 0
DWIDTH 12 0
BBX 9 8 2 2
BITMAP
CE00
E700
7300
3B80
3980
7300
6700
CE00
ENDCHAR
STARTCHAR 00BF
ENCODING 191
SWIDTH 411 0
DWIDTH 8 0
BBX 7 14 1 -2
BITMAP
18
3C
38
00
00
18
38
38
70
60
E0
EE
FE
7C
ENDCHAR
STARTCHAR 00C0
ENCODING 192
SWIDTH 565 0
DWIDTH 11 0
BBX 10 17 1 0
BITMAP
3000
1800
0000
3C00
7F00
FF00
E380
E380
E380
E380
E380
E380
E380
E380
FFC0
FFC0
FFC0
ENDCHAR
STARTCHAR 00C1
ENCODING 193
SWIDTH 565 0
DWIDTH 11 0
BBX 10 17 1 0
BITMAP
0C00
0800
0000
3C00
7F00
FF00
E380
E380
E380
E380
E380
E380
E380
E380
FFC0
FFC0
FFC0
ENDCHAR
STARTCHAR 00C2
ENCODING 194
SWIDTH 565 0
DWIDTH 11 0
BBX 10 18 1 0
BITMAP
0800
1800
3C00
0000
3C00
7F00
FF00
E380
E380
E380
E380
E380
E380
E380
E380
FFC0
FFC0
FFC0
ENDCHAR
STARTCHAR 00C3
ENCODING 195
SWIDTH 565 0
DWIDTH 11 0
BBX 10 17 1 0
BITMAP
3C00
0C00
0000
3C00
7F00
FF00
E380
E380
E380
E380
E380
E380
E380
E380
FFC0
FFC0
FFC0
ENDCHAR
STARTCHAR 00C4
ENCODING 196
SWIDTH 565 0
DWIDTH 11 0
BBX 10 18 1 0
BITMAP
6300
F780
7700
0000
3C00
7F00
FF00
E380
E380
E380
E380
E380
E380
E380
E380
FFC0
FFC0
FFC0
ENDCHAR
STARTCHAR 00C5
ENCODING 197
SWIDTH 565 0
DWIDTH 11 0
BBX 10 19 1 0
BITMAP
1800
3C00
3400
1C00
0000
3C00
7F00
FF00
E380
E380
E380
E380
E380
E380
E380
E380
FFC0
FFC0
FFC0
ENDCHAR
STARTCHAR 00C7
ENCODING 199
SWIDTH 668 0
DWIDTH 13 0
BBX 12 18 1 -4
BITMAP
0780
1FE0
7FF0
7860
F000
E000
E000
E000
E000
E000
7000
7CE0
3FF0
0FC0
0200
0300
0900
0F00
ENDCHAR
STARTCHAR 00C8
ENCODING 200
SWIDTH 514 0
DWIDTH 10 0
BBX 9 17 1 0
BITMAP
3000
1000
0000
7E00
7E00
7E00
7000
7000
7000
FE00
FE00
7000
7000
7000
7F80
7F80
7F80
ENDCHAR
STARTCHAR 00C9
ENCODING 201
SWIDTH 514 0
DWIDTH 10 0
BBX 9 17 1 0
BITMAP
0C00
1800
0000
7E00
7E00
7E00
7000
7000
7000
FE00
FE00
7000
7000
7000
7F80
7F80
7F80
ENDCHAR
STARTCHAR 00CA
ENCODING 202
SWIDTH 514 0
DWIDTH 10 0
BBX 9 18 1 0
BITMAP
1000
1800
3C00
0000
7E00
7E00
7E00
7000
7000
7000
FE00
FE00
7000
7000
7000
7F80
7F80
7F80
ENDCHAR
STARTCHAR 00CB
ENCODING 203
SWIDTH 514 0
DWIDTH 10 0
BBX 9 18 1 0
BITMAP
C600
E700
E700
4000
7E00
7E00
7E00
7000
7000
7000
FE00
FE00
7000
7000
7000
7F80
7F80
7F80
ENDCHAR
STARTCHAR 00CC
ENCODING 204
SWIDTH 257 0
DWIDTH 5 0
BBX 3 12 1 0
BITMAP
C0
C0
00
00
E0
E0
E0
E0
E0
E0
E0
E0
ENDCHAR
STARTCHAR 00CD
ENCODING 205
SWIDTH 257 0
DWIDTH 5 0
BBX 4 12 1 0
BITMAP
30
60
00
00
E0
E0
E0
E0
E0
E0
E0
E0
ENDCHAR
STARTCHAR 00CE
ENCODING 206
SWIDTH 257 0
DWIDTH 5 0
BBX 4 12 1 1
BITMAP
40
E0
10
00
E0
E0
E0
E0
E0
E0
E0
E0
ENDCHAR
STARTCHAR 00CF
ENCODING 207
SWIDTH 257 0
DWIDTH 5 0
BBX 8 13 -1 0
BITMAP
42
EF
EF
C6
00
38
38
38
38
38
38
38
38
ENDCHAR
STARTCHAR 00D1
ENCODING 209
SWIDTH 565 0
DWIDTH 11 0
BBX 9 17 1 0
BITMAP
3E00
0E00
0000
4380
E380
F380
7F80
7F80
6F80
6780
6380
6380
6380
6380
6380
6380
6380
ENDCHAR
STARTCHAR 00D2
ENCODING 210
SWIDTH 822 0
DWIDTH 16 0
BBX 14 17 1 0
BITMAP
0600
0300
0000
07C0
1FF0
7FF8
7878
F01C
E01C
E01C
E01C
E01C
E01C
703C
7CF8
3FF0
0FE0
ENDCHAR
STARTCHAR 00D3
ENCODING 211
SWIDTH 822 0
DWIDTH 16 0
BBX 14 17 1 0
BITMAP
0180
0300
0000
07C0
1FF0
7FF8
7878
F01C
E01C
E01C
E01C
E01C
E01C
703C
7CF8
3FF0
0FE0
ENDCHAR
STARTCHAR 00D4
ENCODING 212
SWIDTH 822 0
DWIDTH 16 0
BBX 14 17 1 1
BITMAP
0300
0780
0000
07C0
1FF0
7FF8
7878
F01C
E01C
E01C
E01C
E01C
E01C
703C
7CF8
3FF0
0FE0
ENDCHAR
STARTCHAR 00D5
ENCODING 213
SWIDTH 822 0
DWIDTH 16 0
BBX 14 17 1 0
BITMAP
0F80
0980
0000
07C0
1FF0
7FF8
7878
F01C
E01C
E01C
E01C
E01C
E01C
703C
7CF8
3FF0
0FE0
ENDCHAR
STARTCHAR 00D6
ENCODING 214
SWIDTH 822 0
DWIDTH 16 0
BBX 14 18 1 0
BITMAP
0C60
1CE0
1CE0
0040
07C0
1FF0
7FF8
7878
F01C
E01C
E01C
E01C
E01C
E01C
703C
7CF8
3FF0
0FE0
ENDCHAR
STARTCHAR 00D7
ENCODING 215
SWIDTH 514 0
DWIDTH 10 0
BBX 8 9 1 2
BITMAP
40
E3
77
3E
1C
3E
77
E3
40
ENDCHAR
STARTCHAR 00D8
ENCODING 216
SWIDTH 771 0
DWIDTH 15 0
BBX 14 15 1 -1
BITMAP
0F98
3FF8
7FF0
7078
E0FC
E1DC
C39C
C71C
EE1C
EC1C
F838
7CF8
7FF0
FFC0
4000
ENDCHAR
STARTCHAR 00D9
ENCODING 217
SWIDTH 514 0
DWIDTH 10 0
BBX 9 17 1 0
BITMAP
3000
1800
0000
E380
E380
E380
E380
E380
E380
E380
E380
E380
E380
E380
F700
7F00
3E00
ENDCHAR
STARTCHAR 00DA
ENCODING 218
SWIDTH 514 0
DWIDTH 10 0
BBX 9 17 1 0
BITMAP
0C00
0800
0000
E380
E380
E380
E380
E380
E380
E380
E380
E380
E380
E380
F700
7F00
3E00
ENDCHAR
STARTCHAR 00DB
ENCODING 219
SWIDTH 514 0
DWIDTH 10 0
BBX 9 18 1 0
BITMAP
0800
1800
3C00
0000
E380
E380
E380
E380
E380
E380
E380
E380
E380
E380
E380
F700
7F00
3E00
ENDCHAR
STARTCHAR 00DC
ENCODING 220
SWIDTH 514 0
DWIDTH 10 0
BBX 9 18 1 0
BITMAP
6300
F700
F700
0000
E380
E380
E380
E380
E380
E380
E380
E380
E380
E380
E380
F700
7F00
3E00
ENDCHAR
STARTCHAR 00DD
ENCODING 221
SWIDTH 514 0
DWIDTH 10 0
BBX 9 17 1 0
BITMAP
0C00
0800
0000
E380
E380
E380
E380
E380
E380
E380
E700
FF00
7F00
3C00
1C00
1C00
1C00
ENDCHAR
STARTCHAR 00E0
ENCODING 224
SWIDTH 565 0
DWIDTH 11 0
BBX 10 17 1 0
BITMAP
3000
1800
0000
3C00
7F00
FF00
E380
E380
E380
E380
E380
E380
E380
E380
FFC0
FFC0
FFC0
ENDCHAR
STARTCHAR 00E1
ENCODING 225
SWIDTH 565 0
DWIDTH 11 0
BBX 10 17 1 0
BITMAP
0C00
0800
0000
3C00
7F00
FF00
E380
E380
E380
E380
E380
E380
E380
E380
FFC0
FFC0
FFC0
ENDCHAR
STARTCHAR 00E2
ENCODING 226
SWIDTH 565 0
DWIDTH 11 0
BBX 10 18 1 0
BITMAP
0800
1800
3C00
0000
3C00
7F00
FF00
E380
E380
E380
E380
E380
E380
E380
E380
FFC0
FFC0
FFC0
ENDCHAR
STARTCHAR 00E3
ENCODING 227
SWIDTH 565 0
DWIDTH 11 0
BBX 10 17 1 0
BITMAP
3C00
0C00
0000
3C00
7F00
FF00
E380
E380
E380
E380
E380
E380
E380
E380
FFC0
FFC0
FFC0
ENDCHAR
STARTCHAR 00E4
ENCODING 228
SWIDTH 565 0
DWIDTH 11 0
BBX 10 18 1 0
BITMAP
6300
F780
7700
0000
3C00
7F00
FF00
E380
E380
E380
E380
E380
E380
E380
E380
FFC0
FFC0
FFC0
ENDCHAR
STARTCHAR 00E5
ENCODING 229
SWIDTH 565 0
DWIDTH 11 0
BBX 10 19 1 0
BITMAP
1800
3C00
3400
1C00
0000
3C00
7F00
FF00
E380
E380
E380
E380
E380
E380
E380
E380
FFC0
FFC0
FFC0
ENDCHAR
STARTCHAR 00E7
ENCODING 231
SWIDTH 668 0
DWIDTH 13 0
BBX 12 18 1 -4
BITMAP
0780
1FE0
7FF0
7860
F000
E000
E000
E000
E000
E000
7000
7CE0
3FF0
0FC0
0200
0300
0900
0F00
ENDCHAR
STARTCHAR 00E8
ENCODING 232
SWIDTH 514 0
DWIDTH 10 0
BBX 9 17 1 0
BITMAP
3000
1000
0000
7E00
7E00
7E00
7000
7000
7000
FE00
FE00
7000
7000
7000
7F80
7F80
7F80
ENDCHAR
STARTCHAR 00E9
ENCODING 233
SWIDTH 514 0
DWIDTH 10 0
BBX 9 17 1 0
BITMAP
0C00
1800
0000
7E00
7E00
7E00
7000
7000
7000
FE00
FE00
7000
7000
7000
7F80
7F80
7F80
ENDCHAR
STARTCHAR 00EA
ENCODING 234
SWIDTH 514 0
DWIDTH 10 0
BBX 9 18 1 0
BITMAP
1000
1800
3C00
0000
7E00
7E00
7E00
7000
7000
7000
FE00
FE00
7000
7000
7000
7F80
7F80
7F80
ENDCHAR
STARTCHAR 00EB
ENCODING 235
SWIDTH 514 0
DWIDTH 10 0
BBX 9 18 1 0
BITMAP
C600
E700
E700
4000
7E00
7E00
7E00
7000
7000
7000
FE00
FE00
7000
7000
7000
7F80
7F80
7F80
ENDCHAR
STARTCHAR 00EC
ENCODING 236
SWIDTH 257 0
DWIDTH 5 0
BBX 3 12 1 0
BITMAP
C0
C0
00
00
E0
E0
E0
E0
E0
E0
E0
E0
ENDCHAR
STARTCHAR 00ED
ENCODING 237
SWIDTH 257 0
DWIDTH 5 0
BBX 4 12 1 0
BITMAP
30
60
00
00
E0
E0
E0
E0
E0
E0
E0
E0
ENDCHAR
STARTCHAR 00EE
ENCODING 238
SWIDTH 257 0
DWIDTH 5 0
BBX 4 12 1 1
BITMAP
40
E0
10
00
E0
E0
E0
E0
E0
E0
E0
E0
ENDCHAR
STARTCHAR 00EF
ENCODING 239
SWIDTH 257 0
DWIDTH 5 0
BBX 8 13 -1 0
BITMAP
42
EF
EF
C6
00
38
38
38
38
38
38
38
38
ENDCHAR
STARTCHAR 00F1
ENCODING 241
SWIDTH 565 0
DWIDTH 11 0
BBX 9 17 1 0
BITMAP
3E00
0E00
0000
4380
E380
F380
7F80
7F80
6F80
6780
6380
6380
6380
6380
6380
6380
6380
ENDCHAR
STARTCHAR 00F2
ENCODING 242
SWIDTH 822 0
DWIDTH 16 0
BBX 14 17 1 0
BITMAP
0600
0300
0000
07C0
1FF0
7FF8
7878
F01C
E01C
E01C
E01C
E01C
E01C
703C
7CF8
3FF0
0FE0
ENDCHAR
STARTCHAR 00F3
ENCODING 243
SWIDTH 822 0
DWIDTH 16 0
BBX 14 17 1 0
BITMAP
0180
0300
0000
07C0
1FF0
7FF8
7878
F01C
E01C
E01C
E01C
E01C
E01C
703C
7CF8
3FF0
0FE0
ENDCHAR
STARTCHAR 00F4
ENCODING 244
SWIDTH 822 0
DWIDTH 16 0
BBX 14 17 1 1
BITMAP
0300
0780
0000
07C0
1FF0
7FF8
7878
F01C
E01C
E01C
E01C
E01C
E01C
703C
7CF8
3FF0
0FE0
ENDCHAR
STARTCHAR 00F5
ENCODING 245
SWIDTH 822 0
DWIDTH 16 0
BBX 14 17 1 0
BITMAP
0F80
0980
0000
07C0
1FF0
7FF8
7878
F01C
E01C
E01C
E01C
E01C
E01C
703C
7CF8
3FF0
0FE0
ENDCHAR
STARTCHAR 00F6
ENCODING 246
SWIDTH 822 0
DWIDTH 16 0
BBX 14 18 1 0
BITMAP
0C60
1CE0
1CE0
0040
07C0
1FF0
7FF8
7878
F01C
E01C
E01C
E01C
E01C
E01C
703C
7CF8
3FF0
0FE0
ENDCHAR
STARTCHAR 00F7
ENCODING 247
SWIDTH 565 0
DWIDTH 11 0
BBX 9 10 1 1
BITMAP
1C00
1C00
0800
0000
FF80
FF80
0000
1C00
1C00
0800
ENDCHAR
STARTCHAR 00F8
ENCODING 248
SWIDTH 771 0
DWIDTH 15 0
BBX 14 15 1 -1
BITMAP
0F98
3FF8
7FF0
7078
E0FC
E1DC
C39C
C71C
EE1C
EC1C
F838
7CF8
7FF0
FFC0
4000
ENDCHAR
STARTCHAR 00F9
ENCODING 249
SWIDTH 514 0
DWIDTH 10 0
BBX 9 17 1 0
BITMAP
3000
1800
0000
E380
E380
E380
E380
E380
E380
E380
E380
E380
E380
E380
F700
7F00
3E00
ENDCHAR
STARTCHAR 00FA
ENCODING 250
SWIDTH 514 0
DWIDTH 10 0
BBX 9 17 1 0
BITMAP
0C00
0800
0000
E380
E380
E380
E380
E380
E380
E380
E380
E380
E380
E380
F700
7F00
3E00
ENDCHAR
STARTCHAR 00FB
ENCODING 251
SWIDTH 514 0
DWIDTH 10 0
BBX 9 18 1 0
BITMAP
0800
1800
3C00
0000
E380
E380
E380
E380
E380
E380
E380
E380
E380
E380
E380
F700
7F00
3E00
ENDCHAR
STARTCHAR 00FC
ENCODING 252
SWIDTH 514 0
DWIDTH 10 0
BBX 9 18 1 0
BITMAP
6300
F700
F700
0000
E380
E380
E380
E380
E380
E380
E380
E380
E380
E380
E380
F700
7F00
3E00
ENDCHAR
STARTCHAR 00FD
ENCODING 253
SWIDTH 514 0
DWIDTH 10 0
BBX 9 17 1 0
BITMAP
0C00
0800
0000
E380
E380
E380
E380
E380
E380
E380
E700
FF00
7F00
3C00
1C00
1C00
1C00
ENDCHAR
STARTCHAR 00FF
ENCODING 255
SWIDTH 514 0
DWIDTH 10 0
BBX 9 18 1 0
BITMAP
6300
F700
E700
0000
E380
E380
E380
E380
E380
E380
E380
E700
FF00
7F00
3C00
1C00
1C00
1C00
ENDCHAR
STARTCHAR 0100
ENCODING 256
SWIDTH 565 0
DWIDTH 11 0
BBX 10 17 1 0
BITMAP
3E00
3E00
0000
3C00
7F00
FF00
E380
E380
E380
E380
E380
E380
E380
E380
FFC0
FFC0
FFC0
ENDCHAR
STARTCHAR 0101
ENCODING 257
SWIDTH 565 0
DWIDTH 11 0
BBX 10 17 1 0
BITMAP
3E00
3E00
0000
3C00
7F00
FF00
E380
E380
E380
E380
E380
E380
E380
E380
FFC0
FFC0
FFC0
ENDCHAR
STARTCHAR 0102
ENCODING 258
SWIDTH 565 0
DWIDTH 11 0
BBX 10 17 1 0
BITMAP
3C00
1C00
0000
3C00
7F00
FF00
E380
E380
E380
E380
E380
E380
E380
E380
FFC0
FFC0
FFC0
ENDCHAR
STARTCHAR 0103
ENCODING 259
SWIDTH 565 0
DWIDTH 11 0
BBX 10 17 1 0
BITMAP
3C00
1C00
0000
3C00
7F00
FF00
E380
E380
E380
E380
E380
E380
E380
E380
FFC0
FFC0
FFC0
ENDCHAR
STARTCHAR 0104
ENCODING 260
SWIDTH 565 0
DWIDTH 11 0
BBX 11 18 1 -4
BITMAP
3C00
7F00
FF00
E380
E380
E380
E380
E380
E380
E380
E380
FFC0
FFC0
FFC0
0180
0300
0360
01C0
ENDCHAR
STARTCHAR 0105
ENCODING 261
SWIDTH 565 0
DWIDTH 11 0
BBX 11 18 1 -4
BITMAP
3C00
7F00
FF00
E380
E380
E380
E380
E380
E380
E380
E380
FFC0
FFC0
FFC0
0180
0300
0360
01C0
ENDCHAR
STARTCHAR 0106
ENCODING 262
SWIDTH 668 0
DWIDTH 13 0
BBX 12 17 1 0
BITMAP
0180
0300
0000
0780
1FE0
7FF0
7860
F000
E000
E000
E000
E000
E000
7000
7CE0
3FF0
0FC0
ENDCHAR
STARTCHAR 0107
ENCODING 263
SWIDTH 668 0
DWIDTH 13 0
BBX 12 17 1 0
BITMAP
0180
0300
0000
0780
1FE0
7FF0
7860
F000
E000
E000
E000
E000
E000
7000
7CE0
3FF0
0FC0
ENDCHAR
STARTCHAR 010A
ENCODING 266
SWIDTH 668 0
DWIDTH 13 0
BBX 12 18 1 0
BITMAP
0300
0780
0300
0000
0780
1FE0
7FF0
7860
F000
E000
E000
E000
E000
E000
7000
7CE0
3FF0
0FC0
ENDCHAR
STARTCHAR 010B
ENCODING 267
SWIDTH 668 0
DWIDTH 13 0
BBX 12 18 1 0
BITMAP
0300
0780
0300
0000
0780
1FE0
7FF0
7860
F000
E000
E000
E000
E000
E000
7000
7CE0
3FF0
0FC0
ENDCHAR
STARTCHAR 010C
ENCODING 268
SWIDTH 668 0
DWIDTH 13 0
BBX 12 17 1 0
BITMAP
0780
0300
0000
0780
1FE0
7FF0
7860
F000
E000
E000
E000
E000
E000
7000
7CE0
3FF0
0FC0
ENDCHAR
STARTCHAR 010D
ENCODING 269
SWIDTH 668 0
DWIDTH 13 0
BBX 12 17 1 0
BITMAP
0780
0300
0000
0780
1FE0
7FF0
7860
F000
E000
E000
E000
E000
E000
7000
7CE0
3FF0
0FC0
ENDCHAR
STARTCHAR 010E
ENCODING 270
SWIDTH 668 0
DWIDTH 13 0
BBX 12 17 1 0
BITMAP
1E00
0800
0000
FC00
FF80
FFC0
E1E0
E0E0
E070
E070
E070
E070
E0E0
E1E0
FFC0
FF80
FF00
ENDCHAR
STARTCHAR 010F
ENCODING 271
SWIDTH 668 0
DWIDTH 13 0
BBX 12 17 1 0
BITMAP
1E00
0800
0000
FC00
FF80
FFC0
E1E0
E0E0
E070
E070
E070
E070
E0E0
E1E0
FFC0
FF80
FF00
ENDCHAR
STARTCHAR 0110
ENCODING 272
SWIDTH 668 0
DWIDTH 13 0
BBX 12 14 1 0
BITMAP
7E00
7F80
7FE0
71E0
70F0
7070
FC70
FC70
7070
7070
70E0
7FE0
7FC0
7F00
ENDCHAR
STARTCHAR 0111
ENCODING 273
SWIDTH 668 0
DWIDTH 13 0
BBX 12 14 1 0
BITMAP
7E00
7F80
7FE0
71E0
70F0
7070
FC70
FC70
7070
7070
70E0
7FE0
7FC0
7F00
ENDCHAR
STARTCHAR 0112
ENCODING 274
SWIDTH 514 0
DWIDTH 10 0
BBX 9 17 1 0
BITMAP
7C00
7C00
0000
7E00
7E00
7E00
7000
7000
7000
FE00
FE00
7000
7000
7000
7F80
7F80
7F80
ENDCHAR
STARTCHAR 0113
ENCODING 275
SWIDTH 514 0
DWIDTH 10 0
BBX 9 17 1 0
BITMAP
7C00
7C00
0000
7E00
7E00
7E00
7000
7000
7000
FE00
FE00
7000
7000
7000
7F80
7F80
7F80
ENDCHAR
STARTCHAR 0116
ENCODING 278
SWIDTH 514 0
DWIDTH 10 0
BBX 9 18 1 0
BITMAP
3800
3800
3800
0000
7E00
7E00
7E00
7000
7000
7000
FE00
FE00
7000
7000
7000
7F80
7F80
7F80
ENDCHAR
STARTCHAR 0117
ENCODING 279
SWIDTH 514 0
DWIDTH 10 0
BBX 9 18 1 0
BITMAP
3800
3800
3800
0000
7E00
7E00
7E00
7000
7000
7000
FE00
FE00
7000
7000
7000
7F80
7F80
7F80
ENDCHAR
STARTCHAR 0118
ENCODING 280
SWIDTH 514 0
DWIDTH 10 0
BBX 10 18 1 -4
BITMAP
7E00
7E00
7E00
7000
7000
7000
FE00
FE00
7000
7000
7000
7F80
7F80
7F80
0300
0600
06C0
0380
ENDCHAR
STARTCHAR 0119
ENCODING 281
SWIDTH 514 0
DWIDTH 10 0
BBX 10 18 1 -4
BITMAP
7E00
7E00
7E00
7000
7000
7000
FE00
FE00
7000
7000
7000
7F80
7F80
7F80
0300
0600
06C0
0380
ENDCHAR
STARTCHAR 011A
ENCODING 282
SWIDTH 514 0
DWIDTH 10 0
BBX 9 17 1 0
BITMAP
3C00
1000
0000
7E00
7E00
7E00
7000
7000
7000
FE00
FE00
7000
7000
7000
7F80
7F80
7F80
ENDCHAR
STARTCHAR 011B
ENCODING 283
SWIDTH 514 0
DWIDTH 10 0
BBX 9 17 1 0
BITMAP
3C00
1000
0000
7E00
7E00
7E00
7000
7000
7000
FE00
FE00
7000
7000
7000
7F80
7F80
7F80
ENDCHAR
STARTCHAR 011E
ENCODING 286
SWIDTH 822 0
DWIDTH 16 0
BBX 15 17 1 0
BITMAP
0780
0700
0000
0780
1FE0
7FF0
7860
F000
E000
E1FE
E1FE
E1FE
E03C
7038
7CF8
3FF0
0FC0
ENDCHAR
STARTCHAR 011F
ENCODING 287
SWIDTH 822 0
DWIDTH 16 0
BBX 15 17 1 0
BITMAP
0780
0700
0000
0780
1FE0
7FF0
7860
F000
E000
E1FE
E1FE
E1FE
E03C
7038
7CF8
3FF0
0FC0
ENDCHAR
STARTCHAR 0120
ENCODING 288
SWIDTH 822 0
DWIDTH 16 0
BBX 15 18 1 0
BITMAP
0300
0780
0300
0000
0780
1FE0
7FF0
7860
F000
E000
E1FE
E1FE
E1FE
E03C
7038
7CF8
3FF0
0FC0
ENDCHAR
STARTCHAR 0121
ENCODING 289
SWIDTH 822 0
DWIDTH 16 0
BBX 15 18 1 0
BITMAP
0300
0780
0300
0000
0780
1FE0
7FF0
7860
F000
E000
E1FE
E1FE
E1FE
E03C
7038
7CF8
3FF0
0FC0
ENDCHAR
STARTCHAR 0124
ENCODING 292
SWIDTH 565 0
DWIDTH 11 0
BBX 9 17 1 1
BITMAP
0C00
1E00
0000
7380
7380
7380
7380
7380
7380
FF80
FF80
FF80
7380
7380
7380
7380
7380
ENDCHAR
STARTCHAR 0125
ENCODING 293
SWIDTH 565 0
DWIDTH 11 0
BBX 9 17 1 1
BITMAP
0C00
1E00
0000
7380
7380
7380
7380
7380
7380
FF80
FF80
FF80
7380
7380
7380
7380
7380
ENDCHAR
STARTCHAR 0128
ENCODING 296
SWIDTH 257 0
DWIDTH 5 0
BBX 5 12 0 0
BITMAP
F8
F8
00
00
70
70
70
70
70
70
70
70
ENDCHAR
STARTCHAR 0129
ENCODING 297
SWIDTH 257 0
DWIDTH 5 0
BBX 5 12 0 0
BITMAP
F8
F8
00
00
70
70
70
70
70
70
70
70
ENDCHAR
STARTCHAR 012A
ENCODING 298
SWIDTH 257 0
DWIDTH 5 0
BBX 5 12 0 0
BITMAP
F8
F8
00
00
70
70
70
70
70
70
70
70
ENDCHAR
STARTCHAR 012B
ENCODING 299
SWIDTH 257 0
DWIDTH 5 0
BBX 5 12 0 0
BITMAP
F8
F8
00
00
70
70
70
70
70
70
70
70
ENDCHAR
STARTCHAR 012E
ENCODING 302
SWIDTH 205 0
DWIDTH 4 0
BBX 6 20 -1 -4
BITMAP
10
10
FC
38
38
48
00
00
38
38
38
38
38
38
38
38
30
60
6C
38
ENDCHAR
STARTCHAR 012F
ENCODING 303
SWIDTH 205 0
DWIDTH 4 0
BBX 6 20 -1 -4
BITMAP
10
10
FC
38
38
48
00
00
38
38
38
38
38
38
38
38
30
60
6C
38
ENDCHAR
STARTCHAR 0130
ENCODING 304
SWIDTH 257 0
DWIDTH 5 0
BBX 3 13 1 0
BITMAP
60
E0
E0
00
00
E0
E0
E0
E0
E0
E0
E0
E0
ENDCHAR
STARTCHAR 0139
ENCODING 313
SWIDTH 462 0
DWIDTH 9 0
BBX 8 17 1 0
BITMAP
60
60
00
E0
E0
E0
E0
E0
E0
E0
E0
E0
E0
E0
FF
FF
FF
ENDCHAR
STARTCHAR 013A
ENCODING 314
SWIDTH 462 0
DWIDTH 9 0
BBX 8 17 1 0
BITMAP
60
60
00
E0
E0
E0
E0
E0
E0
E0
E0
E0
E0
E0
FF
FF
FF
ENDCHAR
STARTCHAR 013D
ENCODING 317
SWIDTH 462 0
DWIDTH 9 0
BBX 8 17 1 0
BITMAP
F0
40
00
E0
E0
E0
E0
E0
E0
E0
E0
E0
E0
E0
FF
FF
FF
ENDCHAR
STARTCHAR 013E
ENCODING 318
SWIDTH 462 0
DWIDTH 9 0
BBX 8 17 1 0
BITMAP
F0
40
00
E0
E0
E0
E0
E0
E0
E0
E0
E0
E0
E0
FF
FF
FF
ENDCHAR
STARTCHAR 0141
ENCODING 321
SWIDTH 514 0
DWIDTH 10 0
BBX 10 14 0 0
BITMAP
3800
3800
3800
3800
3800
3F00
3C00
7800
F800
3800
3800
3FC0
3FC0
3FC0
ENDCHAR
STARTCHAR 0142
ENCODING 322
SWIDTH 514 0
DWIDTH 10 0
BBX 10 14 0 0
BITMAP
3800
3800
3800
3800
3800
3F00
3C00
7800
F800
3800
3800
3FC0
3FC0
3FC0
ENDCHAR
STARTCHAR 0143
ENCODING 323
SWIDTH 565 0
DWIDTH 11 0
BBX 9 17 1 0
BITMAP
0600
0C00
0000
4380
E380
F380
7F80
7F80
6F80
6780
6380
6380
6380
6380
6380
6380
6380
ENDCHAR
STARTCHAR 0144
ENCODING 324
SWIDTH 565 0
DWIDTH 11 0
BBX 9 17 1 0
BITMAP
0600
0C00
0000
4380
E380
F380
7F80
7F80
6F80
6780
6380
6380
6380
6380
6380
6380
6380
ENDCHAR
STARTCHAR 0147
ENCODING 327
SWIDTH 565 0
DWIDTH 11 0
BBX 9 17 1 0
BITMAP
1E00
0C00
0000
4380
E380
F380
7F80
7F80
6F80
6780
6380
6380
6380
6380
6380
6380
6380
ENDCHAR
STARTCHAR 0148
ENCODING 328
SWIDTH 565 0
DWIDTH 11 0
BBX 9 17 1 0
BITMAP
1E00
0C00
0000
4380
E380
F380
7F80
7F80
6F80
6780
6380
6380
6380
6380
6380
6380
6380
ENDCHAR
STARTCHAR 014C
ENCODING 332
SWIDTH 822 0
DWIDTH 16 0
BBX 14 17 1 0
BITMAP
0FC0
0FC0
0000
07C0
1FF0
7FF8
7878
F01C
E01C
E01C
E01C
E01C
E01C
703C
7CF8
3FF0
0FE0
ENDCHAR
STARTCHAR 014D
ENCODING 333
SWIDTH 822 0
DWIDTH 16 0
BBX 14 17 1 0
BITMAP
0FC0
0FC0
0000
07C0
1FF0
7FF8
7878
F01C
E01C
E01C
E01C
E01C
E01C
703C
7CF8
3FF0
0FE0
ENDCHAR
STARTCHAR 0150
ENCODING 336
SWIDTH 822 0
DWIDTH 16 0
BBX 14 17 1 0
BITMAP
06C0
04C0
0000
07C0
1FF0
7FF8
7878
F01C
E01C
E01C
E01C
E01C
E01C
703C
7CF8
3FF0
0FE0
ENDCHAR
STARTCHAR 0151
ENCODING 337
SWIDTH 822 0
DWIDTH 16 0
BBX 14 17 1 0
BITMAP
06C0
04C0
0000
07C0
1FF0
7FF8
7878
F01C
E01C
E01C
E01C
E01C
E01C
703C
7CF8
3FF0
0FE0
ENDCHAR
STARTCHAR 0154
ENCODING 340
SWIDTH 617 0
DWIDTH 12 0
BBX 10 17 1 0
BITMAP
0600
0C00
0000
7E00
7F80
7FC0
71C0
70C0
71C0
FFC0
FF80
FF80
71C0
71C0
71C0
71C0
71C0
ENDCHAR
STARTCHAR 0155
ENCODING 341
SWIDTH 617 0
DWIDTH 12 0
BBX 10 17 1 0
BITMAP
0600
0C00
0000
7E00
7F80
7FC0
71C0
70C0
71C0
FFC0
FF80
FF80
71C0
71C0
71C0
71C0
71C0
ENDCHAR
STARTCHAR 0158
ENCODING 344
SWIDTH 617 0
DWIDTH 12 0
BBX 10 17 1 0
BITMAP
1E00
0C00
0000
7E00
7F80
7FC0
71C0
70C0
71C0
FFC0
FF80
FF80
71C0
71C0
71C0
71C0
71C0
ENDCHAR
STARTCHAR 0159
ENCODING 345
SWIDTH 617 0
DWIDTH 12 0
BBX 10 17 1 0
BITMAP
1E00
0C00
0000
7E00
7F80
7FC0
71C0
70C0
71C0
FFC0
FF80
FF80
71C0
71C0
71C0
71C0
71C0
ENDCHAR
STARTCHAR 015A
ENCODING 346
SWIDTH 514 0
DWIDTH 10 0
BBX 9 17 1 0
BITMAP
0C00
1800
0000
3C00
7E00
FF00
E700
E000
7800
7C00
3E00
0F00
0700
E380
F700
FF00
7E00
ENDCHAR
STARTCHAR 015B
ENCODING 347
SWIDTH 514 0
DWIDTH 10 0
BBX 9 17 1 0
BITMAP
0C00
1800
0000
3C00
7E00
FF00
E700
E000
7800
7C00
3E00
0F00
0700
E380
F700
FF00
7E00
ENDCHAR
STARTCHAR 015E
ENCODING 350
SWIDTH 514 0
DWIDTH 10 0
BBX 9 18 1 -4
BITMAP
3C00
7E00
FF00
E700
E000
7800
7C00
3E00
0F00
0700
E380
F700
FF00
7E00
1800
0C00
2C00
3C00
ENDCHAR
STARTCHAR 015F
ENCODING 351
SWIDTH 514 0
DWIDTH 10 0
BBX 9 18 1 -4
BITMAP
3C00
7E00
FF00
E700
E000
7800
7C00
3E00
0F00
0700
E380
F700
FF00
7E00
1800
0C00
2C00
3C00
ENDCHAR
STARTCHAR 0160
ENCODING 352
SWIDTH 514 0
DWIDTH 10 0
BBX 9 17 1 0
BITMAP
3C00
1800
0000
3C00
7E00
FF00
E700
E000
7800
7C00
3E00
0F00
0700
E380
F700
FF00
7E00
ENDCHAR
STARTCHAR 0161
ENCODING 353
SWIDTH 514 0
DWIDTH 10 0
BBX 9 17 1 0
BITMAP
3C00
1800
0000
3C00
7E00
FF00
E700
E000
7800
7C00
3E00
0F00
0700
E380
F700
FF00
7E00
ENDCHAR
STARTCHAR 0162
ENCODING 354
SWIDTH 514 0
DWIDTH 10 0
BBX 9 18 1 -4
BITMAP
FF80
FF80
FF80
1C00
1C00
1C00
1C00
1C00
1C00
1C00
1C00
1C00
1C00
1C00
1800
1800
2C00
3800
ENDCHAR
STARTCHAR 0163
ENCODING 355
SWIDTH 514 0
DWIDTH 10 0
BBX 9 18 1 -4
BITMAP
FF80
FF80
FF80
1C00
1C00
1C00
1C00
1C00
1C00
1C00
1C00
1C00
1C00
1C00
1800
1800
2C00
3800
ENDCHAR
STARTCHAR 0164
ENCODING 356
SWIDTH 514 0
DWIDTH 10 0
BBX 9 17 1 0
BITMAP
3C00
1800
0000
FF80
FF80
FF80
1C00
1C00
1C00
1C00
1C00
1C00
1C00
1C00
1C00
1C00
1C00
ENDCHAR
STARTCHAR 0165
ENCODING 357
SWIDTH 514 0
DWIDTH 10 0
BBX 9 17 1 0
BITMAP
3C00
1800
0000
FF80
FF80
FF80
1C00
1C00
1C00
1C00
1C00
1C00
1C00
1C00
1C00
1C00
1C00
ENDCHAR
STARTCHAR 0168
ENCODING 360
SWIDTH 514 0
DWIDTH 10 0
BBX 9 17 1 0
BITMAP
3C00
0C00
0000
E380
E380
E380
E380
E380
E380
E380
E380
E380
E380
E380
F700
7F00
3E00
ENDCHAR
STARTCHAR 0169
ENCODING 361
SWIDTH 514 0
DWIDTH 10 0
BBX 9 17 1 0
BITMAP
3C00
0C00
0000
E380
E380
E380
E380
E380
E380
E380
E380
E380
E380
E380
F700
7F00
3E00
ENDCHAR
STARTCHAR 016A
ENCODING 362
SWIDTH 514 0
DWIDTH 10 0
BBX 9 17 1 0
BITMAP
3E00
3E00
0000
E380
E380
E380
E380
E380
E380
E380
E380
E380
E380
E380
F700
7F00
3E00
ENDCHAR
STARTCHAR 016B
ENCODING 363
SWIDTH 514 0
DWIDTH 10 0
BBX 9 17 1 0
BITMAP
3E00
3E00
0000
E380
E380
E380
E380
E380
E380
E380
E380
E380
E380
E380
F700
7F00
3E00
ENDCHAR
STARTCHAR 016E
ENCODING 366
SWIDTH 514 0
DWIDTH 10 0
BBX 9 19 1 0
BITMAP
1800
3C00
3400
1C00
0000
E380
E380
E380
E380
E380
E380
E380
E380
E380
E380
E380
F700
7F00
3E00
ENDCHAR
STARTCHAR 016F
ENCODING 367
SWIDTH 514 0
DWIDTH 10 0
BBX 9 19 1 0
BITMAP
1800
3C00
3400
1C00
0000
E380
E380
E380
E380
E380
E380
E380
E380
E380
E380
E380
F700
7F00
3E00
ENDCHAR
STARTCHAR 0170
ENCODING 368
SWIDTH 514 0
DWIDTH 10 0
BBX 9 17 1 0
BITMAP
3300
3600
0000
E380
E380
E380
E380
E380
E380
E380
E380
E380
E380
E380
F700
7F00
3E00
ENDCHAR
STARTCHAR 0171
ENCODING 369
SWIDTH 514 0
DWIDTH 10 0
BBX 9 17 1 0
BITMAP
3300
3600
0000
E380
E380
E380
E380
E380
E380
E380
E380
E380
E380
E380
F700
7F00
3E00
ENDCHAR
STARTCHAR 0172
ENCODING 370
SWIDTH 514 0
DWIDTH 10 0
BBX 9 18 1 -4
BITMAP
E380
E380
E380
E380
E380
E380
E380
E380
E380
E380
E380
F700
7F00
3E00
1800
3000
3E00
1C00
ENDCHAR
STARTCHAR 0173
ENCODING 371
SWIDTH 514 0
DWIDTH 10 0
BBX 9 18 1 -4
BITMAP
E380
E380
E380
E380
E380
E380
E380
E380
E380
E380
E380
F700
7F00
3E00
1800
3000
3E00
1C00
ENDCHAR
STARTCHAR 0176
ENCODING 374
SWIDTH 514 0
DWIDTH 10 0
BBX 9 17 1 1
BITMAP
1800
3C00
0000
E380
E380
E380
E380
E380
E380
E380
E700
FF00
7F00
3C00
1C00
1C00
1C00
ENDCHAR
STARTCHAR 0177
ENCODING 375
SWIDTH 514 0
DWIDTH 10 0
BBX 9 17 1 1
BITMAP
1800
3C00
0000
E380
E380
E380
E380
E380
E380
E380
E700
FF00
7F00
3C00
1C00
1C00
1C00
ENDCHAR
STARTCHAR 0178
ENCODING 376
SWIDTH 514 0
DWIDTH 10 0
BBX 9 18 1 0
BITMAP
6300
F700
E700
0000
E380
E380
E380
E380
E380
E380
E380
E700
FF00
7F00
3C00
1C00
1C00
1C00
ENDCHAR
STARTCHAR 0179
ENCODING 377
SWIDTH 514 0
DWIDTH 10 0
BBX 9 17 1 0
BITMAP
0C00
0800
0000
FF80
FF80
FF80
0700
0E00
0E00
1C00
3C00
3800
7000
7000
FF80
FF80
FF80
ENDCHAR
STARTCHAR 017A
ENCODING 378
SWIDTH 514 0
DWIDTH 10 0
BBX 9 17 1 0
BITMAP
0C00
0800
0000
FF80
FF80
FF80
0700
0E00
0E00
1C00
3C00
3800
7000
7000
FF80
FF80
FF80
ENDCHAR
STARTCHAR 017B
ENCODING 379
SWIDTH 514 0
DWIDTH 10 0
BBX 9 18 1 0
BITMAP
1C00
1C00
1C00
0000
FF80
FF80
FF80
0700
0E00
0E00
1C00
3C00
3800
7000
7000
FF80
FF80
FF80
ENDCHAR
STARTCHAR 017C
ENCODING 380
SWIDTH 514 0
DWIDTH 10 0
BBX 9 18 1 0
BITMAP
1C00
1C00
1C00
0000
FF80
FF80
FF80
0700
0E00
0E00
1C00
3C00
3800
7000
7000
FF80
FF80
FF80
ENDCHAR
STARTCHAR 017D
ENCODING 381
SWIDTH 514 0
DWIDTH 10 0
BBX 9 17 1 0
BITMAP
3C00
0800
0000
FF80
FF80
FF80
0700
0E00
0E00
1C00
3C00
3800
7000
7000
FF80
FF80
FF80
ENDCHAR
STARTCHAR 017E
ENCODING 382
SWIDTH 514 0
DWIDTH 10 0
BBX 9 17 1 0
BITMAP
3C00
0800
0000
FF80
FF80
FF80
0700
0E00
0E00
1C00
3C00
3800
7000
7000
FF80
FF80
FF80
ENDCHAR
STARTCHAR 01A0
ENCODING 416
SWIDTH 822 0
DWIDTH 16 0
BBX 14 15 1 0
BITMAP
000C
07C8
1FF0
7FF8
7878
F01C
E01C
E01C
E01C
E01C
E01C
703C
7CF8
3FF0
0FE0
ENDCHAR
STARTCHAR 01A1
ENCODING 417
SWIDTH 822 0
DWIDTH 16 0
BBX 14 15 1 0
BITMAP
000C
07C8
1FF0
7FF8
7878
F01C
E01C
E01C
E01C
E01C
E01C
703C
7CF8
3FF0
0FE0
ENDCHAR
STARTCHAR 01AF
ENCODING 431
SWIDTH 514 0
DWIDTH 10 0
BBX 11 15 1 0
BITMAP
0060
E3E0
E380
E380
E380
E380
E380
E380
E380
E380
E380
E380
F700
7F00
3E00
ENDCHAR
STARTCHAR 01B0
ENCODING 432
SWIDTH 514 0
DWIDTH 10 0
BBX 11 15 1 0
BITMAP
0060
E3E0
E380
E380
E380
E380
E380
E380
E380
E380
E380
E380
F700
7F00
3E00
ENDCHAR
STARTCHAR 01CD
ENCODING 461
SWIDTH 565 0
DWIDTH 11 0
BBX 10 17 1 0
BITMAP
3C00
0800
0000
3C00
7F00
FF00
E380
E380
E380
E380
E380
E380
E380
E380
FFC0
FFC0
FFC0
ENDCHAR
STARTCHAR 01CE
ENCODING 462
SWIDTH 565 0
DWIDTH 11 0
BBX 10 17 1 0
BITMAP
3C00
0800
0000
3C00
7F00
FF00
E380
E380
E380
E380
E380
E380
E380
E380
FFC0
FFC0
FFC0
ENDCHAR
STARTCHAR 01CF
ENCODING 463
SWIDTH 257 0
DWIDTH 5 0
BBX 4 12 1 0
BITMAP
F0
60
40
00
E0
E0
E0
E0
E0
E0
E0
E0
ENDCHAR
STARTCHAR 01D0
ENCODING 464
SWIDTH 257 0
DWIDTH 5 0
BBX 4 12 1 0
BITMAP
F0
60
40
00
E0
E0
E0
E0
E0
E0
E0
E0
ENDCHAR
STARTCHAR 01D1
ENCODING 465
SWIDTH 822 0
DWIDTH 16 0
BBX 14 17 1 0
BITMAP
0780
0300
0000
07C0
1FF0
7FF8
7878
F01C
E01C
E01C
E01C
E01C
E01C
703C
7CF8
3FF0
0FE0
ENDCHAR
STARTCHAR 01D2
ENCODING 466
SWIDTH 822 0
DWIDTH 16 0
BBX 14 17 1 0
BITMAP
0780
0300
0000
07C0
1FF0
7FF8
7878
F01C
E01C
E01C
E01C
E01C
E01C
703C
7CF8
3FF0
0FE0
ENDCHAR
STARTCHAR 01D3
ENCODING 467
SWIDTH 514 0
DWIDTH 10 0
BBX 9 17 1 0
BITMAP
3C00
1800
0000
E380
E380
E380
E380
E380
E380
E380
E380
E380
E380
E380
F700
7F00
3E00
ENDCHAR
STARTCHAR 01D4
ENCODING 468
SWIDTH 514 0
DWIDTH 10 0
BBX 9 17 1 0
BITMAP
3C00
1800
0000
E380
E380
E380
E380
E380
E380
E380
E380
E380
E380
E380
F700
7F00
3E00
ENDCHAR
STARTCHAR 02C6
ENCODING 710
SWIDTH 308 0
DWIDTH 6 0
BBX 4 3 0 15
BITMAP
20
70
F0
ENDCHAR
STARTCHAR 02C7
ENCODING 711
SWIDTH 205 0
DWIDTH 4 0
BBX 4 2 0 15
BITMAP
F0
20
ENDCHAR
STARTCHAR 02D8
ENCODING 728
SWIDTH 257 0
DWIDTH 5 0
BBX 4 2 0 15
BITMAP
F0
70
ENDCHAR
STARTCHAR 02D9
ENCODING 729
SWIDTH 154 0
DWIDTH 3 0
BBX 3 3 0 15
BITMAP
E0
E0
E0
ENDCHAR
STARTCHAR 02DA
ENCODING 730
SWIDTH 205 0
DWIDTH 4 0
BBX 4 4 0 15
BITMAP
60
F0
90
F0
ENDCHAR
STARTCHAR 02DB
ENCODING 731
SWIDTH 205 0
DWIDTH 4 0
BBX 4 4 0 -4
BITMAP
60
C0
D0
70
ENDCHAR
STARTCHAR 02DC
ENCODING 732
SWIDTH 205 0
DWIDTH 4 0
BBX 5 2 0 15
BITMAP
F8
38
ENDCHAR
STARTCHAR 02DD
ENCODING 733
SWIDTH 308 0
DWIDTH 6 0
BBX 6 2 0 15
BITMAP
6C
C8
ENDCHAR
STARTCHAR 0300
ENCODING 768
SWIDTH 0 0
DWIDTH 0 0
BBX 3 2 -3 15
BITMAP
C0
60
ENDCHAR
STARTCHAR 0301
ENCODING 769
SWIDTH 0 0
DWIDTH 0 0
BBX 3 2 -3 15
BITMAP
E0
C0
ENDCHAR
STARTCHAR 0302
ENCODING 770
SWIDTH 0 0
DWIDTH 0 0
BBX 4 3 -4 15
BITMAP
40
E0
F0
ENDCHAR
STARTCHAR 0303
ENCODING 771
SWIDTH 0 0
DWIDTH 0 0
BBX 5 2 -5 15
BITMAP
F8
18
ENDCHAR
STARTCHAR 0304
ENCODING 772
SWIDTH 0 0
DWIDTH 0 0
BBX 6 2 -6 15
BITMAP
FC
FC
ENDCHAR
STARTCHAR 0306
ENCODING 774
SWIDTH 0 0
DWIDTH 0 0
BBX 4 2 -4 15
BITMAP
F0
E0
ENDCHAR
STARTCHAR 0307
ENCODING 775
SWIDTH 0 0
DWIDTH 0 0
BBX 3 3 -3 15
BITMAP
E0
E0
E0
ENDCHAR
STARTCHAR 0308
ENCODING 776
SWIDTH 0 0
DWIDTH 0 0
BBX 8 4 -8 14
BITMAP
66
E7
E7
42
ENDCHAR
STARTCHAR 0309
ENCODING 777
SWIDTH 0 0
DWIDTH 0 0
BBX 2 3 -2 15
BITMAP
C0
C0
C0
ENDCHAR
STARTCHAR 030A
ENCODING 778
SWIDTH 0 0
DWIDTH 0 0
BBX 4 4 -4 15
BITMAP
60
F0
90
F0
ENDCHAR
STARTCHAR 030B
ENCODING 779
SWIDTH 0 0
DWIDTH 0 0
BBX 5 2 -6 15
BITMAP
D8
98
ENDCHAR
STARTCHAR 030C
ENCODING 780
SWIDTH 0 0
DWIDTH 0 0
BBX 4 2 -4 15
BITMAP
F0
40
ENDCHAR
STARTCHAR 031B
ENCODING 795
SWIDTH 0 0
DWIDTH 0 0
BBX 2 2 -2 13
BITMAP
C0
C0
ENDCHAR
STARTCHAR 0323
ENCODING 803
SWIDTH 0 0
DWIDTH 0 0
BBX 3 3 -3 -5
BITMAP
E0
E0
E0
ENDCHAR
STARTCHAR 0326
ENCODING 806
SWIDTH 0 0
DWIDTH 0 0
BBX 3 3 -3 -4
BITMAP
60
C0
C0
ENDCHAR
STARTCHAR 0327
ENCODING 807
SWIDTH 0 0
DWIDTH 0 0
BBX 4 4 -4 -4
BITMAP
20
30
B0
F0
ENDCHAR
STARTCHAR 0328
ENCODING 808
SWIDTH 0 0
DWIDTH 0 0
BBX 5 4 -5 -4
BITMAP
60
C0
D8
70
ENDCHAR
STARTCHAR 0335
ENCODING 821
SWIDTH 0 0
DWIDTH 0 0
BBX 7 2 -7 3
BITMAP
FE
FE
ENDCHAR
STARTCHAR 1EA0
ENCODING 7840
SWIDTH 565 0
DWIDTH 11 0
BBX 10 19 1 -5
BITMAP
3C00
7F00
FF00
E380
E380
E380
E380
E380
E380
E380
E380
FFC0
FFC0
FFC0
0000
0000
1C00
1C00
1C00
ENDCHAR
STARTCHAR 1EA1
ENCODING 7841
SWIDTH 565 0
DWIDTH 11 0
BBX 10 19 1 -5
BITMAP
3C00
7F00
FF00
E380
E380
E380
E380
E380
E380
E380
E380
FFC0
FFC0
FFC0
0000
0000
1C00
1C00
1C00
ENDCHAR
STARTCHAR 1EA2
ENCODING 7842
SWIDTH 565 0
DWIDTH 11 0
BBX 10 18 1 0
BITMAP
0800
1800
1800
0000
3C00
7F00
FF00
E380
E380
E380
E380
E380
E380
E380
E380
FFC0
FFC0
FFC0
ENDCHAR
STARTCHAR 1EA3
ENCODING 7843
SWIDTH 565 0
DWIDTH 11 0
BBX 10 18 1 0
BITMAP
0800
1800
1800
0000
3C00
7F00
FF00
E380
E380
E380
E380
E380
E380
E380
E380
FFC0
FFC0
FFC0
ENDCHAR
STARTCHAR 1EA4
ENCODING 7844
SWIDTH 565 0
DWIDTH 11 0
BBX 10 19 1 0
BITMAP
0180
0980
1B00
3C00
0000
3C00
7F00
FF00
E380
E380
E380
E380
E380
E380
E380
E380
FFC0
FFC0
FFC0
ENDCHAR
STARTCHAR 1EA5
ENCODING 7845
SWIDTH 565 0
DWIDTH 11 0
BBX 10 19 1 0
BITMAP
0180
0980
1B00
3C00
0000
3C00
7F00
FF00
E380
E380
E380
E380
E380
E380
E380
E380
FFC0
FFC0
FFC0
ENDCHAR
STARTCHAR 1EA6
ENCODING 7846
SWIDTH 565 0
DWIDTH 11 0
BBX 11 19 0 0
BITMAP
C000
6400
2C00
1E00
0000
1E00
3F80
7F80
71C0
71C0
71C0
71C0
71C0
71C0
71C0
71C0
7FE0
7FE0
7FE0
ENDCHAR
STARTCHAR 1EA7
ENCODING 7847
SWIDTH 565 0
DWIDTH 11 0
BBX 11 19 0 0
BITMAP
C000
6400
2C00
1E00
0000
1E00
3F80
7F80
71C0
71C0
71C0
71C0
71C0
71C0
71C0
71C0
7FE0
7FE0
7FE0
ENDCHAR
STARTCHAR 1EA8
ENCODING 7848
SWIDTH 565 0
DWIDTH 11 0
BBX 10 20 1 0
BITMAP
0100
0100
0B00
1B00
3C00
0000
3C00
7F00
FF00
E380
E380
E380
E380
E380
E380
E380
E380
FFC0
FFC0
FFC0
ENDCHAR
STARTCHAR 1EA9
ENCODING 7849
SWIDTH 565 0
DWIDTH 11 0
BBX 10 20 1 0
BITMAP
0100
0100
0B00
1B00
3C00
0000
3C00
7F00
FF00
E380
E380
E380
E380
E380
E380
E380
E380
FFC0
FFC0
FFC0
ENDCHAR
STARTCHAR 1EAA
ENCODING 7850
SWIDTH 565 0
DWIDTH 11 0
BBX 11 19 1 0
BITMAP
0380
0BE0
1800
3C00
0000
3C00
7F00
FF00
E380
E380
E380
E380
E380
E380
E380
E380
FFC0
FFC0
FFC0
ENDCHAR
STARTCHAR 1EAB
ENCODING 7851
SWIDTH 565 0
DWIDTH 11 0
BBX 11 19 1 0
BITMAP
0380
0BE0
1800
3C00
0000
3C00
7F00
FF00
E380
E380
E380
E380
E380
E380
E380
E380
FFC0
FFC0
FFC0
ENDCHAR
STARTCHAR 1EAC
ENCODING 7852
SWIDTH 565 0
DWIDTH 11 0
BBX 10 23 1 -5
BITMAP
0800
1800
3C00
0000
3C00
7F00
FF00
E380
E380
E380
E380
E380
E380
E380
E380
FFC0
FFC0
FFC0
0000
0000
1C00
1C00
1C00
ENDCHAR
STARTCHAR 1EAD
ENCODING 7853
SWIDTH 565 0
DWIDTH 11 0
BBX 10 23 1 -5
BITMAP
0800
1800
3C00
0000
3C00
7F00
FF00
E380
E380
E380
E380
E380
E380
E380
E380
FFC0
FFC0
FFC0
0000
0000
1C00
1C00
1C00
ENDCHAR
STARTCHAR 1EAE
ENCODING 7854
SWIDTH 565 0
DWIDTH 11 0
BBX 10 19 1 0
BITMAP
00C0
0080
3D80
1C00
0000
3C00
7F00
FF00
E380
E380
E380
E380
E380
E380
E380
E380
FFC0
FFC0
FFC0
ENDCHAR
STARTCHAR 1EAF
ENCODING 7855
SWIDTH 565 0
DWIDTH 11 0
BBX 10 19 1 0
BITMAP
00C0
0080
3D80
1C00
0000
3C00
7F00
FF00
E380
E380
E380
E380
E380
E380
E380
E380
FFC0
FFC0
FFC0
ENDCHAR
STARTCHAR 1EB0
ENCODING 7856
SWIDTH 565 0
DWIDTH 11 0
BBX 11 19 0 0
BITMAP
C000
4000
7E00
0E00
0000
1E00
3F80
7F80
71C0
71C0
71C0
71C0
71C0
71C0
71C0
71C0
7FE0
7FE0
7FE0
ENDCHAR
STARTCHAR 1EB1
ENCODING 7857
SWIDTH 565 0
DWIDTH 11 0
BBX 11 19 0 0
BITMAP
C000
4000
7E00
0E00
0000
1E00
3F80
7F80
71C0
71C0
71C0
71C0
71C0
71C0
71C0
71C0
7FE0
7FE0
7FE0
ENDCHAR
STARTCHAR 1EB2
ENCODING 7858
SWIDTH 565 0
DWIDTH 11 0
BBX 10 19 1 0
BITMAP
0080
0180
3D80
1C00
0000
3C00
7F00
FF00
E380
E380
E380
E380
E380
E380
E380
E380
FFC0
FFC0
FFC0
ENDCHAR
STARTCHAR 1EB3
ENCODING 7859
SWIDTH 565 0
DWIDTH 11 0
BBX 10 19 1 0
BITMAP
0080
0180
3D80
1C00
0000
3C00
7F00
FF00
E380
E380
E380
E380
E380
E380
E380
E380
FFC0
FFC0
FFC0
ENDCHAR
STARTCHAR 1EB4
ENCODING 7860
SWIDTH 565 0
DWIDTH 11 0
BBX 10 20 1 0
BITMAP
0C00
0F00
0100
3C00
1C00
0000
3C00
7F00
FF00
E380
E380
E380
E380
E380
E380
E380
E380
FFC0
FFC0
FFC0
ENDCHAR
STARTCHAR 1EB5
ENCODING 7861
SWIDTH 565 0
DWIDTH 11 0
BBX 10 20 1 0
BITMAP
0C00
0F00
0100
3C00
1C00
0000
3C00
7F00
FF00
E380
E380
E380
E380
E380
E380
E380
E380
FFC0
FFC0
FFC0
ENDCHAR
STARTCHAR 1EB6
ENCODING 7862
SWIDTH 565 0
DWIDTH 11 0
BBX 10 22 1 -5
BITMAP
3C00
1C00
0000
3C00
7F00
FF00
E380
E380
E380
E380
E380
E380
E380
E380
FFC0
FFC0
FFC0
0000
0000
1C00
1C00
1C00
ENDCHAR
STARTCHAR 1EB7
ENCODING 7863
SWIDTH 565 0
DWIDTH 11 0
BBX 10 22 1 -5
BITMAP
3C00
1C00
0000
3C00
7F00
FF00
E380
E380
E380
E380
E380
E380
E380
E380
FFC0
FFC0
FFC0
0000
0000
1C00
1C00
1C00
ENDCHAR
STARTCHAR 1EB8
ENCODING 7864
SWIDTH 514 0
DWIDTH 10 0
BBX 9 19 1 -5
BITMAP
7E00
7E00
7E00
7000
7000
7000
FE00
FE00
7000
7000
7000
7F80
7F80
7F80
0000
0000
0C00
1E00
1C00
ENDCHAR
STARTCHAR 1EB9
ENCODING 7865
SWIDTH 514 0
DWIDTH 10 0
BBX 9 19 1 -5
BITMAP
7E00
7E00
7E00
7000
7000
7000
FE00
FE00
7000
7000
7000
7F80
7F80
7F80
0000
0000
0C00
1E00
1C00
ENDCHAR
STARTCHAR 1EBA
ENCODING 7866
SWIDTH 514 0
DWIDTH 10 0
BBX 9 18 1 0
BITMAP
1800
1000
1000
0000
7E00
7E00
7E00
7000
7000
7000
FE00
FE00
7000
7000
7000
7F80
7F80
7F80
ENDCHAR
STARTCHAR 1EBB
ENCODING 7867
SWIDTH 514 0
DWIDTH 10 0
BBX 9 18 1 0
BITMAP
1800
1000
1000
0000
7E00
7E00
7E00
7000
7000
7000
FE00
FE00
7000
7000
7000
7F80
7F80
7F80
ENDCHAR
STARTCHAR 1EBC
ENCODING 7868
SWIDTH 514 0
DWIDTH 10 0
BBX 9 17 1 0
BITMAP
7C00
1C00
0000
7E00
7E00
7E00
7000
7000
7000
FE00
FE00
7000
7000
7000
7F80
7F80
7F80
ENDCHAR
STARTCHAR 1EBD
ENCODING 7869
SWIDTH 514 0
DWIDTH 10 0
BBX 9 17 1 0
BITMAP
7C00
1C00
0000
7E00
7E00
7E00
7000
7000
7000
FE00
FE00
7000
7000
7000
7F80
7F80
7F80
ENDCHAR
STARTCHAR 1EBE
ENCODING 7870
SWIDTH 514 0
DWIDTH 10 0
BBX 9 19 1 0
BITMAP
0180
1300
1A00
3C00
0000
7E00
7E00
7E00
7000
7000
7000
FE00
FE00
7000
7000
7000
7F80
7F80
7F80
ENDCHAR
STARTCHAR 1EBF
ENCODING 7871
SWIDTH 514 0
DWIDTH 10 0
BBX 9 19 1 0
BITMAP
0180
1300
1A00
3C00
0000
7E00
7E00
7E00
7000
7000
7000
FE00
FE00
7000
7000
7000
7F80
7F80
7F80
ENDCHAR
STARTCHAR 1EC0
ENCODING 7872
SWIDTH 514 0
DWIDTH 10 0
BBX 10 19 0 0
BITMAP
C000
C800
6C00
1E00
0000
3F00
3F00
3F00
3800
3800
3800
7F00
7F00
3800
3800
3800
3FC0
3FC0
3FC0
ENDCHAR
STARTCHAR 1EC1
ENCODING 7873
SWIDTH 514 0
DWIDTH 10 0
BBX 10 19 0 0
BITMAP
C000
C800
6C00
1E00
0000
3F00
3F00
3F00
3800
3800
3800
7F00
7F00
3800
3800
3800
3FC0
3FC0
3FC0
ENDCHAR
STARTCHAR 1EC2
ENCODING 7874
SWIDTH 514 0
DWIDTH 10 0
BBX 9 20 1 0
BITMAP
0300
0300
1200
1A00
3C00
0000
7E00
7E00
7E00
7000
7000
7000
FE00
FE00
7000
7000
7000
7F80
7F80
7F80
ENDCHAR
STARTCHAR 1EC3
ENCODING 7875
SWIDTH 514 0
DWIDTH 10 0
BBX 9 20 1 0
BITMAP
0300
0300
1200
1A00
3C00
0000
7E00
7E00
7E00
7000
7000
7000
FE00
FE00
7000
7000
7000
7F80
7F80
7F80
ENDCHAR
STARTCHAR 1EC4
ENCODING 7876
SWIDTH 514 0
DWIDTH 10 0
BBX 10 19 1 0
BITMAP
0700
17C0
1800
3C00
0000
7E00
7E00
7E00
7000
7000
7000
FE00
FE00
7000
7000
7000
7F80
7F80
7F80
ENDCHAR
STARTCHAR 1EC5
ENCODING 7877
SWIDTH 514 0
DWIDTH 10 0
BBX 10 19 1 0
BITMAP
0700
17C0
1800
3C00
0000
7E00
7E00
7E00
7000
7000
7000
FE00
FE00
7000
7000
7000
7F80
7F80
7F80
ENDCHAR
STARTCHAR 1EC6
ENCODING 7878
SWIDTH 514 0
DWIDTH 10 0
BBX 9 23 1 -5
BITMAP
1000
1800
3C00
0000
7E00
7E00
7E00
7000
7000
7000
FE00
FE00
7000
7000
7000
7F80
7F80
7F80
0000
0000
0C00
1E00
1C00
ENDCHAR
STARTCHAR 1EC7
ENCODING 7879
SWIDTH 514 0
DWIDTH 10 0
BBX 9 23 1 -5
BITMAP
1000
1800
3C00
0000
7E00
7E00
7E00
7000
7000
7000
FE00
FE00
7000
7000
7000
7F80
7F80
7F80
0000
0000
0C00
1E00
1C00
ENDCHAR
STARTCHAR 1EC8
ENCODING 7880
SWIDTH 257 0
DWIDTH 5 0
BBX 3 13 1 0
BITMAP
60
40
C0
40
00
E0
E0
E0
E0
E0
E0
E0
E0
ENDCHAR
STARTCHAR 1EC9
ENCODING 7881
SWIDTH 257 0
DWIDTH 5 0
BBX 3 13 1 0
BITMAP
60
40
C0
40
00
E0
E0
E0
E0
E0
E0
E0
E0
ENDCHAR
STARTCHAR 1ECA
ENCODING 7882
SWIDTH 205 0
DWIDTH 4 0
BBX 6 21 -1 -5
BITMAP
10
10
FC
38
38
48
00
00
38
38
38
38
38
38
38
38
00
00
38
38
38
ENDCHAR
STARTCHAR 1ECB
ENCODING 7883
SWIDTH 205 0
DWIDTH 4 0
BBX 6 21 -1 -5
BITMAP
10
10
FC
38
38
48
00
00
38
38
38
38
38
38
38
38
00
00
38
38
38
ENDCHAR
STARTCHAR 1ECC
ENCODING 7884
SWIDTH 822 0
DWIDTH 16 0
BBX 14 19 1 -5
BITMAP
07C0
1FF0
7FF8
7878
F01C
E01C
E01C
E01C
E01C
E01C
703C
7CF8
3FF0
0FE0
0000
0000
0300
0780
0380
ENDCHAR
STARTCHAR 1ECD
ENCODING 7885
SWIDTH 822 0
DWIDTH 16 0
BBX 14 19 1 -5
BITMAP
07C0
1FF0
7FF8
7878
F01C
E01C
E01C
E01C
E01C
E01C
703C
7CF8
3FF0
0FE0
0000
0000
0300
0780
0380
ENDCHAR
STARTCHAR 1ECE
ENCODING 7886
SWIDTH 822 0
DWIDTH 16 0
BBX 14 18 1 0
BITMAP
0300
0300
0300
0000
07C0
1FF0
7FF8
7878
F01C
E01C
E01C
E01C
E01C
E01C
703C
7CF8
3FF0
0FE0
ENDCHAR
STARTCHAR 1ECF
ENCODING 7887
SWIDTH 822 0
DWIDTH 16 0
BBX 14 18 1 0
BITMAP
0300
0300
0300
0000
07C0
1FF0
7FF8
7878
F01C
E01C
E01C
E01C
E01C
E01C
703C
7CF8
3FF0
0FE0
ENDCHAR
STARTCHAR 1ED0
ENCODING 7888
SWIDTH 822 0
DWIDTH 16 0
BBX 14 19 1 0
BITMAP
0030
0020
0360
0780
0000
07C0
1FF0
7FF8
7878
F01C
E01C
E01C
E01C
E01C
E01C
703C
7CF8
3FF0
0FE0
ENDCHAR
STARTCHAR 1ED1
ENCODING 7889
SWIDTH 822 0
DWIDTH 16 0
BBX 14 19 1 0
BITMAP
0030
0020
0360
0780
0000
07C0
1FF0
7FF8
7878
F01C
E01C
E01C
E01C
E01C
E01C
703C
7CF8
3FF0
0FE0
ENDCHAR
STARTCHAR 1ED2
ENCODING 7890
SWIDTH 822 0
DWIDTH 16 0
BBX 14 19 1 0
BITMAP
3000
1800
1B00
0780
0000
07C0
1FF0
7FF8
7878
F01C
E01C
E01C
E01C
E01C
E01C
703C
7CF8
3FF0
0FE0
ENDCHAR
STARTCHAR 1ED3
ENCODING 7891
SWIDTH 822 0
DWIDTH 16 0
BBX 14 19 1 0
BITMAP
3000
1800
1B00
0780
0000
07C0
1FF0
7FF8
7878
F01C
E01C
E01C
E01C
E01C
E01C
703C
7CF8
3FF0
0FE0
ENDCHAR
STARTCHAR 1ED4
ENCODING 7892
SWIDTH 822 0
DWIDTH 16 0
BBX 14 20 1 0
BITMAP
0060
0060
0060
0360
0780
0000
07C0
1FF0
7FF8
7878
F01C
E01C
E01C
E01C
E01C
E01C
703C
7CF8
3FF0
0FE0
ENDCHAR
STARTCHAR 1ED5
ENCODING 7893
SWIDTH 822 0
DWIDTH 16 0
BBX 14 20 1 0
BITMAP
0060
0060
0060
0360
0780
0000
07C0
1FF0
7FF8
7878
F01C
E01C
E01C
E01C
E01C
E01C
703C
7CF8
3FF0
0FE0
ENDCHAR
STARTCHAR 1ED6
ENCODING 7894
SWIDTH 822 0
DWIDTH 16 0
BBX 14 19 1 0
BITMAP
0060
0078
0300
0780
0000
07C0
1FF0
7FF8
7878
F01C
E01C
E01C
E01C
E01C
E01C
703C
7CF8
3FF0
0FE0
ENDCHAR
STARTCHAR 1ED7
ENCODING 7895
SWIDTH 822 0
DWIDTH 16 0
BBX 14 19 1 0
BITMAP
0060
0078
0300
0780
0000
07C0
1FF0
7FF8
7878
F01C
E01C
E01C
E01C
E01C
E01C
703C
7CF8
3FF0
0FE0
ENDCHAR
STARTCHAR 1ED8
ENCODING 7896
SWIDTH 822 0
DWIDTH 16 0
BBX 14 22 1 -4
BITMAP
0300
0780
0000
07C0
1FF0
7FF8
7878
F01C
E01C
E01C
E01C
E01C
E01C
703C
7CF8
3FF0
0FE0
0000
0000
0300
0780
0380
ENDCHAR
STARTCHAR 1ED9
ENCODING 7897
SWIDTH 822 0
DWIDTH 16 0
BBX 14 22 1 -4
BITMAP
0300
0780
0000
07C0
1FF0
7FF8
7878
F01C
E01C
E01C
E01C
E01C
E01C
703C
7CF8
3FF0
0FE0
0000
0000
0300
0780
0380
ENDCHAR
STARTCHAR 1EDA
ENCODING 7898
SWIDTH 822 0
DWIDTH 16 0
BBX 14 17 1 0
BITMAP
0180
0300
000C
07C8
1FF0
7FF8
7878
F01C
E01C
E01C
E01C
E01C
E01C
703C
7CF8
3FF0
0FE0
ENDCHAR
STARTCHAR 1EDB
ENCODING 7899
SWIDTH 822 0
DWIDTH 16 0
BBX 14 17 1 0
BITMAP
0180
0300
000C
07C8
1FF0
7FF8
7878
F01C
E01C
E01C
E01C
E01C
E01C
703C
7CF8
3FF0
0FE0
ENDCHAR
STARTCHAR 1EDC
ENCODING 7900
SWIDTH 822 0
DWIDTH 16 0
BBX 14 17 1 0
BITMAP
0600
0300
000C
07C8
1FF0
7FF8
7878
F01C
E01C
E01C
E01C
E01C
E01C
703C
7CF8
3FF0
0FE0
ENDCHAR
STARTCHAR 1EDD
ENCODING 7901
SWIDTH 822 0
DWIDTH 16 0
BBX 14 17 1 0
BITMAP
0600
0300
000C
07C8
1FF0
7FF8
7878
F01C
E01C
E01C
E01C
E01C
E01C
703C
7CF8
3FF0
0FE0
ENDCHAR
STARTCHAR 1EDE
ENCODING 7902
SWIDTH 822 0
DWIDTH 16 0
BBX 14 18 1 0
BITMAP
0300
0300
0300
000C
07C8
1FF0
7FF8
7878
F01C
E01C
E01C
E01C
E01C
E01C
703C
7CF8
3FF0
0FE0
ENDCHAR
STARTCHAR 1EDF
ENCODING 7903
SWIDTH 822 0
DWIDTH 16 0
BBX 14 18 1 0
BITMAP
0300
0300
0300
000C
07C8
1FF0
7FF8
7878
F01C
E01C
E01C
E01C
E01C
E01C
703C
7CF8
3FF0
0FE0
ENDCHAR
STARTCHAR 1EE0
ENCODING 7904
SWIDTH 822 0
DWIDTH 16 0
BBX 14 17 1 0
BITMAP
0F80
0980
000C
07C8
1FF0
7FF8
7878
F01C
E01C
E01C
E01C
E01C
E01C
703C
7CF8
3FF0
0FE0
ENDCHAR
STARTCHAR 1EE1
ENCODING 7905
SWIDTH 822 0
DWIDTH 16 0
BBX 14 17 1 0
BITMAP
0F80
0980
000C
07C8
1FF0
7FF8
7878
F01C
E01C
E01C
E01C
E01C
E01C
703C
7CF8
3FF0
0FE0
ENDCHAR
STARTCHAR 1EE2
ENCODING 7906
SWIDTH 822 0
DWIDTH 16 0
BBX 14 20 1 -5
BITMAP
000C
07C8
1FF0
7FF8
7878
F01C
E01C
E01C
E01C
E01C
E01C
703C
7CF8
3FF0
0FE0
0000
0000
0300
0780
0380
ENDCHAR
STARTCHAR 1EE3
ENCODING 7907
SWIDTH 822 0
DWIDTH 16 0
BBX 14 20 1 -5
BITMAP
000C
07C8
1FF0
7FF8
7878
F01C
E01C
E01C
E01C
E01C
E01C
703C
7CF8
3FF0
0FE0
0000
0000
0300
0780
0380
ENDCHAR
STARTCHAR 1EE4
ENCODING 7908
SWIDTH 514 0
DWIDTH 10 0
BBX 9 19 1 -5
BITMAP
E380
E380
E380
E380
E380
E380
E380
E380
E380
E380
E380
F700
7F00
3E00
0000
0000
1800
1C00
1C00
ENDCHAR
STARTCHAR 1EE5
ENCODING 7909
SWIDTH 514 0
DWIDTH 10 0
BBX 9 19 1 -5
BITMAP
E380
E380
E380
E380
E380
E380
E380
E380
E380
E380
E380
F700
7F00
3E00
0000
0000
1800
1C00
1C00
ENDCHAR
STARTCHAR 1EE6
ENCODING 7910
SWIDTH 514 0
DWIDTH 10 0
BBX 9 18 1 0
BITMAP
0800
1800
1800
0000
E380
E380
E380
E380
E380
E380
E380
E380
E380
E380
E380
F700
7F00
3E00
ENDCHAR
STARTCHAR 1EE7
ENCODING 7911
SWIDTH 514 0
DWIDTH 10 0
BBX 9 18 1 0
BITMAP
0800
1800
1800
0000
E380
E380
E380
E380
E380
E380
E380
E380
E380
E380
E380
F700
7F00
3E00
ENDCHAR
STARTCHAR 1EE8
ENCODING 7912
SWIDTH 514 0
DWIDTH 10 0
BBX 11 17 1 0
BITMAP
0C00
0800
0060
E3E0
E380
E380
E380
E380
E380
E380
E380
E380
E380
E380
F700
7F00
3E00
ENDCHAR
STARTCHAR 1EE9
ENCODING 7913
SWIDTH 514 0
DWIDTH 10 0
BBX 11 17 1 0
BITMAP
0C00
0800
0060
E3E0
E380
E380
E380
E380
E380
E380
E380
E380
E380
E380
F700
7F00
3E00
ENDCHAR
STARTCHAR 1EEA
ENCODING 7914
SWIDTH 514 0
DWIDTH 10 0
BBX 11 17 1 0
BITMAP
3000
1800
0060
E3E0
E380
E380
E380
E380
E380
E380
E380
E380
E380
E380
F700
7F00
3E00
ENDCHAR
STARTCHAR 1EEB
ENCODING 7915
SWIDTH 514 0
DWIDTH 10 0
BBX 11 17 1 0
BITMAP
3000
1800
0060
E3E0
E380
E380
E380
E380
E380
E380
E380
E380
E380
E380
F700
7F00
3E00
ENDCHAR
STARTCHAR 1EEC
ENCODING 7916
SWIDTH 514 0
DWIDTH 10 0
BBX 11 18 1 0
BITMAP
0800
1800
1800
0060
E3E0
E380
E380
E380
E380
E380
E380
E380
E380
E380
E380
F700
7F00
3E00
ENDCHAR
STARTCHAR 1EED
ENCODING 7917
SWIDTH 514 0
DWIDTH 10 0
BBX 11 18 1 0
BITMAP
0800
1800
1800
0060
E3E0
E380
E380
E380
E380
E380
E380
E380
E380
E380
E380
F700
7F00
3E00
ENDCHAR
STARTCHAR 1EEE
ENCODING 7918
SWIDTH 514 0
DWIDTH 10 0
BBX 11 17 1 0
BITMAP
3C00
0C00
0060
E3E0
E380
E380
E380
E380
E380
E380
E380
E380
E380
E380
F700
7F00
3E00
ENDCHAR
STARTCHAR 1EEF
ENCODING 7919
SWIDTH 514 0
DWIDTH 10 0
BBX 11 17 1 0
BITMAP
3C00
0C00
0060
E3E0
E380
E380
E380
E380
E380
E380
E380
E380
E380
E380
F700
7F00
3E00
ENDCHAR
STARTCHAR 1EF0
ENCODING 7920
SWIDTH 514 0
DWIDTH 10 0
BBX 11 20 1 -5
BITMAP
0060
E3E0
E380
E380
E380
E380
E380
E380
E380
E380
E380
E380
F700
7F00
3E00
0000
0000
1800
1C00
1C00
ENDCHAR
STARTCHAR 1EF1
ENCODING 7921
SWIDTH 514 0
DWIDTH 10 0
BBX 11 20 1 -5
BITMAP
0060
E3E0
E380
E380
E380
E380
E380
E380
E380
E380
E380
E380
F700
7F00
3E00
0000
0000
1800
1C00
1C00
ENDCHAR
STARTCHAR 1EF2
ENCODING 7922
SWIDTH 514 0
DWIDTH 10 0
BBX 9 17 1 0
BITMAP
3000
1800
0000
E380
E380
E380
E380
E380
E380
E380
E700
FF00
7F00
3C00
1C00
1C00
1C00
ENDCHAR
STARTCHAR 1EF3
ENCODING 7923
SWIDTH 514 0
DWIDTH 10 0
BBX 9 17 1 0
BITMAP
3000
1800
0000
E380
E380
E380
E380
E380
E380
E380
E700
FF00
7F00
3C00
1C00
1C00
1C00
ENDCHAR
STARTCHAR 1EF4
ENCODING 7924
SWIDTH 514 0
DWIDTH 10 0
BBX 9 19 1 -5
BITMAP
E380
E380
E380
E380
E380
E380
E380
E700
FF00
7F00
3C00
1C00
1C00
1C00
0000
0000
1800
1C00
1C00
ENDCHAR
STARTCHAR 1EF5
ENCODING 7925
SWIDTH 514 0
DWIDTH 10 0
BBX 9 19 1 -5
BITMAP
E380
E380
E380
E380
E380
E380
E380
E700
FF00
7F00
3C00
1C00
1C00
1C00
0000
0000
1800
1C00
1C00
ENDCHAR
STARTCHAR 1EF6
ENCODING 7926
SWIDTH 514 0
DWIDTH 10 0
BBX 9 18 1 0
BITMAP
0800
1800
1800
0000
E380
E380
E380
E380
E380
E380
E380
E700
FF00
7F00
3C00
1C00
1C00
1C00
ENDCHAR
STARTCHAR 1EF7
ENCODING 7927
SWIDTH 514 0
DWIDTH 10 0
BBX 9 18 1 0
BITMAP
0800
1800
1800
0000
E380
E380
E380
E380
E380
E380
E380
E700
FF00
7F00
3C00
1C00
1C00
1C00
ENDCHAR
STARTCHAR 1EF8
ENCODING 7928
SWIDTH 514 0
DWIDTH 10 0
BBX 9 17 1 0
BITMAP
3C00
0C00
0000
E380
E380
E380
E380
E380
E380
E380
E700
FF00
7F00
3C00
1C00
1C00
1C00
ENDCHAR
STARTCHAR 1EF9
ENCODING 7929
SWIDTH 514 0
DWIDTH 10 0
BBX 9 17 1 0
BITMAP
3C00
0C00
0000
E380
E380
E380
E380
E380
E380
E380
E700
FF00
7F00
3C00
1C00
1C00
1C00
ENDCHAR
STARTCHAR 2013
ENCODING 8211
SWIDTH 565 0
DWIDTH 11 0
BBX 9 2 1 4
BITMAP
FF80
FF80
ENDCHAR
STARTCHAR 2014
ENCODING 8212
SWIDTH 822 0
DWIDTH 16 0
BBX 14 2 1 4
BITMAP
FFFC
FFFC
ENDCHAR
STARTCHAR 2018
ENCODING 8216
SWIDTH 257 0
DWIDTH 5 0
BBX 3 4 1 10
BITMAP
60
60
60
C0
ENDCHAR
STARTCHAR 2019
ENCODING 8217
SWIDTH 257 0
DWIDTH 5 0
BBX 3 4 1 10
BITMAP
60
60
C0
C0
ENDCHAR
STARTCHAR 201A
ENCODING 8218
SWIDTH 257 0
DWIDTH 5 0
BBX 3 3 1 -2
BITMAP
60
C0
C0
ENDCHAR
STARTCHAR 201C
ENCODING 8220
SWIDTH 411 0
DWIDTH 8 0
BBX 7 4 1 10
BITMAP
26
66
6C
EC
ENDCHAR
STARTCHAR 201D
ENCODING 8221
SWIDTH 411 0
DWIDTH 8 0
BBX 7 4 1 10
BITMAP
6E
6C
CC
CC
ENDCHAR
STARTCHAR 201E
ENCODING 8222
SWIDTH 462 0
DWIDTH 9 0
BBX 7 3 1 -2
BITMAP
66
CC
CC
ENDCHAR
STARTCHAR 2020
ENCODING 8224
SWIDTH 411 0
DWIDTH 8 0
BBX 6 10 1 4
BITMAP
30
30
FC
FC
30
30
30
30
30
30
ENDCHAR
STARTCHAR 2021
ENCODING 8225
SWIDTH 411 0
DWIDTH 8 0
BBX 6 10 1 4
BITMAP
30
30
FC
FC
30
30
FC
FC
30
30
ENDCHAR
STARTCHAR 2022
ENCODING 8226
SWIDTH 308 0
DWIDTH 6 0
BBX 5 5 1 3
BITMAP
70
F0
F8
F0
60
ENDCHAR
STARTCHAR 2026
ENCODING 8230
SWIDTH 720 0
DWIDTH 14 0
BBX 13 3 1 0
BITMAP
6730
E778
E770
ENDCHAR
STARTCHAR 2030
ENCODING 8240
SWIDTH 1388 0
DWIDTH 27 0
BBX 25 14 1 0
BITMAP
380C0000
7E180000
E6380000
C6300000
E6600000
7EE00000
38C00000
018C0C00
033F1F00
033F3B80
0673B180
0C733380
1C3F3F00
181E1F00
ENDCHAR
STARTCHAR 2039
ENCODING 8249
SWIDTH 411 0
DWIDTH 8 0
BBX 5 8 1 2
BITMAP
18
38
70
60
E0
70
38
18
ENDCHAR
STARTCHAR 203A
ENCODING 8250
SWIDTH 411 0
DWIDTH 8 0
BBX 5 8 2 2
BITMAP
C0
E0
70
38
38
70
60
C0
ENDCHAR
STARTCHAR 2044
ENCODING 8260
SWIDTH 668 0
DWIDTH 13 0
BBX 12 14 1 0
BITMAP
0070
0060
00C0
01C0
0180
0300
0600
0600
0C00
1800
3800
3000
6000
E000
ENDCHAR
STARTCHAR 20AC
ENCODING 8364
SWIDTH 617 0
DWIDTH 12 0
BBX 10 14 1 0
BITMAP
01C0
07C0
0FC0
1E00
3C00
FF80
FF80
3800
FF80
FF80
1C00
1FC0
0FC0
03C0
ENDCHAR
STARTCHAR 2122
ENCODING 8482
SWIDTH 822 0
DWIDTH 16 0
BBX 15 8 1 6
BITMAP
FC46
FE76
33FE
33FE
3366
3366
3366
3366
ENDCHAR
STARTCHAR 2190
ENCODING 8592
SWIDTH 822 0
DWIDTH 16 0
BBX 13 10 2 2
BITMAP
0800
1C00
3800
7000
FFF8
FFF8
7000
3800
1C00
0800
ENDCHAR
STARTCHAR 2191
ENCODING 8593
SWIDTH 617 0
DWIDTH 12 0
BBX 10 14 1 0
BITMAP
0400
0E00
1F00
3F80
7DC0
ECC0
4C00
0C00
0C00
0C00
0C00
0C00
0C00
0C00
ENDCHAR
STARTCHAR 2192
ENCODING 8594
SWIDTH 822 0
DWIDTH 16 0
BBX 14 10 1 2
BITMAP
00C0
00E0
0070
0038
FFFC
FFFC
0038
0070
00E0
00C0
ENDCHAR
STARTCHAR 2193
ENCODING 8595
SWIDTH 617 0
DWIDTH 12 0
BBX 10 14 1 0
BITMAP
0C00
0C00
0C00
0C00
0C00
0C00
0C00
0C00
4CC0
EDC0
7F80
3F00
1E00
0C00
ENDCHAR
STARTCHAR 2194
ENCODING 8596
SWIDTH 925 0
DWIDTH 18 0
BBX 15 10 2 2
BITMAP
0820
1C70
3838
701C
FFFE
FFFE
701C
3838
1C70
0820
ENDCHAR
STARTCHAR 2195
ENCODING 8597
SWIDTH 668 0
DWIDTH 13 0
BBX 12 14 1 0
BITMAP
0600
0F00
1F80
7FE0
E6F0
4620
0600
0600
4620
E660
76E0
3FC0
1F00
0600
ENDCHAR
STARTCHAR 2196
ENCODING 8598
SWIDTH 617 0
DWIDTH 12 0
BBX 10 10 1 1
BITMAP
FE00
FE00
F000
F800
DC00
CE00
C700
0380
01C0
00C0
ENDCHAR
STARTCHAR 2197
ENCODING 8599
SWIDTH 617 0
DWIDTH 12 0
BBX 10 10 2 1
BITMAP
1FC0
1FC0
03C0
07C0
0EC0
1CC0
38C0
7000
E000
C000
ENDCHAR
STARTCHAR 2198
ENCODING 8600
SWIDTH 617 0
DWIDTH 12 0
BBX 11 11 1 1
BITMAP
4000
E000
7000
3860
1C60
0E60
0760
03E0
01E0
0FE0
0FE0
ENDCHAR
STARTCHAR 2199
ENCODING 8601
SWIDTH 617 0
DWIDTH 12 0
BBX 11 11 1 1
BITMAP
0040
00E0
01C0
C380
C700
CE00
DC00
F800
F000
FE00
FE00
ENDCHAR
STARTCHAR 2202
ENCODING 8706
SWIDTH 617 0
DWIDTH 12 0
BBX 10 15 1 0
BITMAP
1000
1C00
3E00
0F00
0780
0380
1DC0
7FC0
7FC0
F3C0
E1C0
E3C0
FF80
7F00
3E00
ENDCHAR
STARTCHAR 2205
ENCODING 8709
SWIDTH 720 0
DWIDTH 14 0
BBX 12 12 1 1
BITMAP
0F90
3DF0
6060
40F0
C190
C310
C610
CC10
5830
7060
7DC0
CF80
ENDCHAR
STARTCHAR 220F
ENCODING 8719
SWIDTH 668 0
DWIDTH 13 0
BBX 11 16 1 -2
BITMAP
FFE0
FFE0
31C0
31C0
31C0
31C0
31C0
31C0
31C0
31C0
31C0
31C0
31C0
31C0
31C0
31C0
ENDCHAR
STARTCHAR 2211
ENCODING 8721
SWIDTH 514 0
DWIDTH 10 0
BBX 8 16 1 -2
BITMAP
FF
FF
E0
70
70
38
18
1C
1C
18
38
70
70
E0
FF
FF
ENDCHAR
STARTCHAR 2212
ENCODING 8722
SWIDTH 565 0
DWIDTH 11 0
BBX 9 2 1 5
BITMAP
FF80
FF80
ENDCHAR
STARTCHAR 221A
ENCODING 8730
SWIDTH 720 0
DWIDTH 14 0
BBX 13 16 1 -2
BITMAP
00F8
01F8
01C0
0180
0180
0380
0380
0300
E700
6700
7600
7600
3E00
3C00
3C00
1C00
ENDCHAR
STARTCHAR 221E
ENCODING 8734
SWIDTH 822 0
DWIDTH 16 0
BBX 15 6 1 4
BITMAP
7C78
EEEC
C384
C386
EFCC
7C7C
ENDCHAR
STARTCHAR 222B
ENCODING 8747
SWIDTH 514 0
DWIDTH 10 0
BBX 9 16 1 -2
BITMAP
0780
0F80
0E00
0C00
0C00
0C00
1C00
1C00
1800
1800
1800
1800
3800
3800
F000
E000
ENDCHAR
STARTCHAR 2248
ENCODING 8776
SWIDTH 514 0
DWIDTH 10 0
BBX 9 7 1 3
BITMAP
F000
FF80
0F80
0000
6000
FF80
FF80
ENDCHAR
STARTCHAR 2260
ENCODING 8800
SWIDTH 565 0
DWIDTH 11 0
BBX 9 11 1 1
BITMAP
0600
0600
FF80
FF80
FF80
1C00
1800
FF80
FF80
3000
7000
ENDCHAR
STARTCHAR 2264
ENCODING 8804
SWIDTH 565 0
DWIDTH 11 0
BBX 9 8 1 3
BITMAP
0F80
FF80
E000
FF00
0F80
0080
FF80
FF80
ENDCHAR
STARTCHAR 2265
ENCODING 8805
SWIDTH 565 0
DWIDTH 11 0
BBX 9 8 1 3
BITMAP
F800
7F80
0380
7F80
FC00
8000
FF80
FF80
ENDCHAR
STARTCHAR 25CA
ENCODING 9674
SWIDTH 514 0
DWIDTH 10 0
BBX 8 12 1 1
BITMAP
1C
3C
3E
76
67
E3
E3
67
76
3E
3C
1C
ENDCHAR
ENDFONT
